ISO-10303-21;
HEADER;
FILE_DESCRIPTION(('FreeCAD Model'),'2;1');
FILE_NAME('Open CASCADE Shape Model','2026-08-28T17:46:10',('FreeCAD'),(
    'FreeCAD'),'Open CASCADE STEP processor 7.8','FreeCAD','Unknown');
FILE_SCHEMA(('AUTOMOTIVE_DESIGN { 1 0 10303 214 1 1 1 1 }'));
ENDSEC;
DATA;
#1 = APPLICATION_PROTOCOL_DEFINITION('international standard',
  'automotive_design',2000,#2);
#2 = APPLICATION_CONTEXT(
  'core data for automotive mechanical design processes');
#3 = SHAPE_DEFINITION_REPRESENTATION(#4,#10);
#4 = PRODUCT_DEFINITION_SHAPE('','',#5);
#5 = PRODUCT_DEFINITION('design','',#6,#9);
#6 = PRODUCT_DEFINITION_FORMATION('','',#7);
#7 = PRODUCT('Open CASCADE STEP translator 7.8 1',
  'Open CASCADE STEP translator 7.8 1','',(#8));
#8 = PRODUCT_CONTEXT('',#2,'mechanical');
#9 = PRODUCT_DEFINITION_CONTEXT('part definition',#2,'design');
#10 = ADVANCED_BREP_SHAPE_REPRESENTATION('',(#11,#15),#2047);
#11 = AXIS2_PLACEMENT_3D('',#12,#13,#14);
#12 = CARTESIAN_POINT('',(0.,0.,0.));
#13 = DIRECTION('',(0.,0.,1.));
#14 = DIRECTION('',(1.,0.,-0.));
#15 = MANIFOLD_SOLID_BREP('',#16);
#16 = CLOSED_SHELL('',(#17,#64,#127,#235,#364,#388,#443,#483,#507,#540,
    #570,#598,#640,#665,#690,#714,#840,#865,#890,#907,#937,#961,#991,
    #1110,#1127,#1195,#1292,#1304,#1403,#1463,#1485,#1502,#1519,#1531,
    #1553,#1570,#1587,#1599,#1621,#1638,#1655,#1667,#1688,#1787,#1799,
    #1824,#1849,#1874,#1899,#1924,#1949,#1974,#1999,#2011,#2023,#2035));
#17 = ADVANCED_FACE('',(#18),#59,.F.);
#18 = FACE_BOUND('',#19,.F.);
#19 = EDGE_LOOP('',(#20,#30,#44,#52));
#20 = ORIENTED_EDGE('',*,*,#21,.F.);
#21 = EDGE_CURVE('',#22,#24,#26,.T.);
#22 = VERTEX_POINT('',#23);
#23 = CARTESIAN_POINT('',(-44.9,-18.65,7.5));
#24 = VERTEX_POINT('',#25);
#25 = CARTESIAN_POINT('',(-44.9,-18.65,29.));
#26 = LINE('',#27,#28);
#27 = CARTESIAN_POINT('',(-44.9,-18.65,3.));
#28 = VECTOR('',#29,1.);
#29 = DIRECTION('',(0.,0.,1.));
#30 = ORIENTED_EDGE('',*,*,#31,.T.);
#31 = EDGE_CURVE('',#22,#32,#34,.T.);
#32 = VERTEX_POINT('',#33);
#33 = CARTESIAN_POINT('',(-41.9,-21.65,7.5));
#34 = B_SPLINE_CURVE_WITH_KNOTS('',8,(#35,#36,#37,#38,#39,#40,#41,#42,
    #43),.UNSPECIFIED.,.F.,.F.,(9,9),(0.,1.),.PIECEWISE_BEZIER_KNOTS.);
#35 = CARTESIAN_POINT('',(-44.9,-18.65,7.5));
#36 = CARTESIAN_POINT('',(-44.9,-19.23904860162,7.5));
#37 = CARTESIAN_POINT('',(-44.76781764548,-19.82809748255,7.5));
#38 = CARTESIAN_POINT('',(-44.50345415439,-20.38253963357,7.5));
#39 = CARTESIAN_POINT('',(-44.11777633495,-20.86777633494,7.5));
#40 = CARTESIAN_POINT('',(-43.63253963356,-21.25345415439,7.5));
#41 = CARTESIAN_POINT('',(-43.07809748256,-21.51781764548,7.5));
#42 = CARTESIAN_POINT('',(-42.48904860161,-21.65,7.5));
#43 = CARTESIAN_POINT('',(-41.9,-21.65,7.5));
#44 = ORIENTED_EDGE('',*,*,#45,.T.);
#45 = EDGE_CURVE('',#32,#46,#48,.T.);
#46 = VERTEX_POINT('',#47);
#47 = CARTESIAN_POINT('',(-41.9,-21.65,29.));
#48 = LINE('',#49,#50);
#49 = CARTESIAN_POINT('',(-41.9,-21.65,3.));
#50 = VECTOR('',#51,1.);
#51 = DIRECTION('',(0.,0.,1.));
#52 = ORIENTED_EDGE('',*,*,#53,.F.);
#53 = EDGE_CURVE('',#24,#46,#54,.T.);
#54 = CIRCLE('',#55,3.);
#55 = AXIS2_PLACEMENT_3D('',#56,#57,#58);
#56 = CARTESIAN_POINT('',(-41.9,-18.65,29.));
#57 = DIRECTION('',(0.,0.,1.));
#58 = DIRECTION('',(-1.,0.,0.));
#59 = CYLINDRICAL_SURFACE('',#60,3.);
#60 = AXIS2_PLACEMENT_3D('',#61,#62,#63);
#61 = CARTESIAN_POINT('',(-41.9,-18.65,3.));
#62 = DIRECTION('',(0.,0.,1.));
#63 = DIRECTION('',(-1.,0.,0.));
#64 = ADVANCED_FACE('',(#65),#122,.T.);
#65 = FACE_BOUND('',#66,.T.);
#66 = EDGE_LOOP('',(#67,#77,#85,#91,#92,#100,#108,#116));
#67 = ORIENTED_EDGE('',*,*,#68,.F.);
#68 = EDGE_CURVE('',#69,#71,#73,.T.);
#69 = VERTEX_POINT('',#70);
#70 = CARTESIAN_POINT('',(-44.9,18.65,7.5));
#71 = VERTEX_POINT('',#72);
#72 = CARTESIAN_POINT('',(-44.9,7.25,7.5));
#73 = LINE('',#74,#75);
#74 = CARTESIAN_POINT('',(-44.9,18.65,7.5));
#75 = VECTOR('',#76,1.);
#76 = DIRECTION('',(0.,-1.,0.));
#77 = ORIENTED_EDGE('',*,*,#78,.T.);
#78 = EDGE_CURVE('',#69,#79,#81,.T.);
#79 = VERTEX_POINT('',#80);
#80 = CARTESIAN_POINT('',(-44.9,18.65,29.));
#81 = LINE('',#82,#83);
#82 = CARTESIAN_POINT('',(-44.9,18.65,3.));
#83 = VECTOR('',#84,1.);
#84 = DIRECTION('',(0.,0.,1.));
#85 = ORIENTED_EDGE('',*,*,#86,.F.);
#86 = EDGE_CURVE('',#24,#79,#87,.T.);
#87 = LINE('',#88,#89);
#88 = CARTESIAN_POINT('',(-44.9,-22.9,29.));
#89 = VECTOR('',#90,1.);
#90 = DIRECTION('',(0.,1.,0.));
#91 = ORIENTED_EDGE('',*,*,#21,.F.);
#92 = ORIENTED_EDGE('',*,*,#93,.F.);
#93 = EDGE_CURVE('',#94,#22,#96,.T.);
#94 = VERTEX_POINT('',#95);
#95 = CARTESIAN_POINT('',(-44.9,-7.25,7.5));
#96 = LINE('',#97,#98);
#97 = CARTESIAN_POINT('',(-44.9,18.65,7.5));
#98 = VECTOR('',#99,1.);
#99 = DIRECTION('',(0.,-1.,0.));
#100 = ORIENTED_EDGE('',*,*,#101,.T.);
#101 = EDGE_CURVE('',#94,#102,#104,.T.);
#102 = VERTEX_POINT('',#103);
#103 = CARTESIAN_POINT('',(-44.9,-7.25,16.));
#104 = LINE('',#105,#106);
#105 = CARTESIAN_POINT('',(-44.9,-7.25,4.));
#106 = VECTOR('',#107,1.);
#107 = DIRECTION('',(0.,0.,1.));
#108 = ORIENTED_EDGE('',*,*,#109,.F.);
#109 = EDGE_CURVE('',#110,#102,#112,.T.);
#110 = VERTEX_POINT('',#111);
#111 = CARTESIAN_POINT('',(-44.9,7.25,16.));
#112 = LINE('',#113,#114);
#113 = CARTESIAN_POINT('',(-44.9,-14.45,16.));
#114 = VECTOR('',#115,1.);
#115 = DIRECTION('',(0.,-1.,0.));
#116 = ORIENTED_EDGE('',*,*,#117,.F.);
#117 = EDGE_CURVE('',#71,#110,#118,.T.);
#118 = LINE('',#119,#120);
#119 = CARTESIAN_POINT('',(-44.9,7.25,4.));
#120 = VECTOR('',#121,1.);
#121 = DIRECTION('',(0.,0.,1.));
#122 = PLANE('',#123);
#123 = AXIS2_PLACEMENT_3D('',#124,#125,#126);
#124 = CARTESIAN_POINT('',(-44.9,-21.65,3.));
#125 = DIRECTION('',(1.,0.,0.));
#126 = DIRECTION('',(0.,0.,1.));
#127 = ADVANCED_FACE('',(#128),#153,.T.);
#128 = FACE_BOUND('',#129,.T.);
#129 = EDGE_LOOP('',(#130,#142,#143));
#130 = ORIENTED_EDGE('',*,*,#131,.F.);
#131 = EDGE_CURVE('',#22,#132,#134,.T.);
#132 = VERTEX_POINT('',#133);
#133 = CARTESIAN_POINT('',(-41.4,-18.15,4.));
#134 = B_SPLINE_CURVE_WITH_KNOTS('',6,(#135,#136,#137,#138,#139,#140,
    #141),.UNSPECIFIED.,.F.,.F.,(7,7),(0.,1.),.PIECEWISE_BEZIER_KNOTS.);
#135 = CARTESIAN_POINT('',(-44.9,-18.65,7.5));
#136 = CARTESIAN_POINT('',(-44.9,-18.56666666666,6.583702142703));
#137 = CARTESIAN_POINT('',(-44.61220309892,-18.48333333333,
    5.667482247532));
#138 = CARTESIAN_POINT('',(-44.03616552374,-18.4,4.863834476259));
#139 = CARTESIAN_POINT('',(-43.23251775246,-18.31666666666,
    4.287796901071));
#140 = CARTESIAN_POINT('',(-42.31629785729,-18.23333333333,4.));
#141 = CARTESIAN_POINT('',(-41.4,-18.15,4.));
#142 = ORIENTED_EDGE('',*,*,#31,.T.);
#143 = ORIENTED_EDGE('',*,*,#144,.T.);
#144 = EDGE_CURVE('',#32,#132,#145,.T.);
#145 = B_SPLINE_CURVE_WITH_KNOTS('',6,(#146,#147,#148,#149,#150,#151,
    #152),.UNSPECIFIED.,.F.,.F.,(7,7),(0.,1.),.PIECEWISE_BEZIER_KNOTS.);
#146 = CARTESIAN_POINT('',(-41.9,-21.65,7.5));
#147 = CARTESIAN_POINT('',(-41.81666666666,-21.65,6.583702142703));
#148 = CARTESIAN_POINT('',(-41.73333333333,-21.36220309892,
    5.667482247532));
#149 = CARTESIAN_POINT('',(-41.65,-20.78616552374,4.863834476259));
#150 = CARTESIAN_POINT('',(-41.56666666666,-19.98251775246,
    4.287796901071));
#151 = CARTESIAN_POINT('',(-41.48333333333,-19.06629785729,4.));
#152 = CARTESIAN_POINT('',(-41.4,-18.15,4.));
#153 = B_SPLINE_SURFACE_WITH_KNOTS('',8,8,(
    (#154,#155,#156,#157,#158,#159,#160,#161,#162)
    ,(#163,#164,#165,#166,#167,#168,#169,#170,#171)
    ,(#172,#173,#174,#175,#176,#177,#178,#179,#180)
    ,(#181,#182,#183,#184,#185,#186,#187,#188,#189)
    ,(#190,#191,#192,#193,#194,#195,#196,#197,#198)
    ,(#199,#200,#201,#202,#203,#204,#205,#206,#207)
    ,(#208,#209,#210,#211,#212,#213,#214,#215,#216)
    ,(#217,#218,#219,#220,#221,#222,#223,#224,#225)
    ,(#226,#227,#228,#229,#230,#231,#232,#233,#234
  )),.UNSPECIFIED.,.F.,.F.,.F.,(9,9),(9,9),(0.,1.),(0.,1.),
  .PIECEWISE_BEZIER_KNOTS.);
#154 = CARTESIAN_POINT('',(-44.9,-18.65,7.5));
#155 = CARTESIAN_POINT('',(-44.9,-18.5875,6.812776607027));
#156 = CARTESIAN_POINT('',(-44.74578723863,-18.525,6.125552997735));
#157 = CARTESIAN_POINT('',(-44.43736323055,-18.4625,5.478703679827));
#158 = CARTESIAN_POINT('',(-43.98740564522,-18.4,4.91259435477));
#159 = CARTESIAN_POINT('',(-43.42129632017,-18.3375,4.46263676945));
#160 = CARTESIAN_POINT('',(-42.77444700226,-18.275,4.154212761364));
#161 = CARTESIAN_POINT('',(-42.08722339297,-18.2125,4.));
#162 = CARTESIAN_POINT('',(-41.4,-18.15,4.));
#163 = CARTESIAN_POINT('',(-44.9,-19.23904860162,7.5));
#164 = CARTESIAN_POINT('',(-44.90613592293,-19.15760502641,
    6.812776607027));
#165 = CARTESIAN_POINT('',(-44.75443420897,-19.05688485604,
    6.101073421834));
#166 = CARTESIAN_POINT('',(-44.42746343093,-18.93688827983,
    5.419937683772));
#167 = CARTESIAN_POINT('',(-43.93461014069,-18.79920000646,
    4.842557347244));
#168 = CARTESIAN_POINT('',(-43.34768949847,-18.64699276562,
    4.421138696692));
#169 = CARTESIAN_POINT('',(-42.71385625069,-18.48469302568,
    4.140102160457));
#170 = CARTESIAN_POINT('',(-42.05600796885,-18.31734649932,4.));
#171 = CARTESIAN_POINT('',(-41.4,-18.15,4.));
#172 = CARTESIAN_POINT('',(-44.76781764548,-19.82809748255,7.5));
#173 = CARTESIAN_POINT('',(-44.79207900903,-19.75603273353,
    6.812776607027));
#174 = CARTESIAN_POINT('',(-44.5567391784,-19.72012303491,6.083588010476
    ));
#175 = CARTESIAN_POINT('',(-44.21068343785,-19.5603800547,5.377961972304
    ));
#176 = CARTESIAN_POINT('',(-43.70820049113,-19.33298887986,
    4.792530913297));
#177 = CARTESIAN_POINT('',(-43.14078555864,-19.06211115871,
    4.391497216151));
#178 = CARTESIAN_POINT('',(-42.5582568993,-18.76629555128,4.130023159808
    ));
#179 = CARTESIAN_POINT('',(-41.91640522436,-18.50954286895,4.));
#180 = CARTESIAN_POINT('',(-41.4,-18.15,4.));
#181 = CARTESIAN_POINT('',(-44.50345415439,-20.38253963357,7.5));
#182 = CARTESIAN_POINT('',(-44.53493537029,-20.34688058226,
    6.812776607027));
#183 = CARTESIAN_POINT('',(-44.34005465367,-20.26684963521,
    6.073096763661));
#184 = CARTESIAN_POINT('',(-44.01782463579,-20.04598726942,
    5.352776545423));
#185 = CARTESIAN_POINT('',(-43.54266237371,-19.72193160644,
    4.762515052929));
#186 = CARTESIAN_POINT('',(-43.00755738906,-19.34562609353,
    4.373712327826));
#187 = CARTESIAN_POINT('',(-42.46310581992,-18.94878764691,
    4.123975759419));
#188 = CARTESIAN_POINT('',(-41.88324901423,-18.57425525416,4.));
#189 = CARTESIAN_POINT('',(-41.4,-18.15,4.));
#190 = CARTESIAN_POINT('',(-44.11777633495,-20.86777633494,7.5));
#191 = CARTESIAN_POINT('',(-44.12729929198,-20.87729929197,
    6.812776607027));
#192 = CARTESIAN_POINT('',(-43.99073526202,-20.74073526202,6.06959968139
    ));
#193 = CARTESIAN_POINT('',(-43.712794335,-20.462794335,5.34438140313));
#194 = CARTESIAN_POINT('',(-43.30020867583,-20.05020867583,
    4.752509766139));
#195 = CARTESIAN_POINT('',(-42.830277588,-19.580277588,4.367784031718));
#196 = CARTESIAN_POINT('',(-42.34710209022,-19.09710209022,4.12195995929
    ));
#197 = CARTESIAN_POINT('',(-41.85901149671,-18.60901149671,4.));
#198 = CARTESIAN_POINT('',(-41.4,-18.15,4.));
#199 = CARTESIAN_POINT('',(-43.63253963356,-21.25345415439,7.5));
#200 = CARTESIAN_POINT('',(-43.59688058225,-21.28493537029,
    6.812776607027));
#201 = CARTESIAN_POINT('',(-43.5168496352,-21.09005465367,6.073096763661
    ));
#202 = CARTESIAN_POINT('',(-43.29598726941,-20.76782463579,
    5.352776545423));
#203 = CARTESIAN_POINT('',(-42.97193160644,-20.29266237371,
    4.762515052929));
#204 = CARTESIAN_POINT('',(-42.59562609352,-19.75755738907,
    4.373712327826));
#205 = CARTESIAN_POINT('',(-42.19878764691,-19.21310581992,
    4.123975759419));
#206 = CARTESIAN_POINT('',(-41.82425525416,-18.63324901423,4.));
#207 = CARTESIAN_POINT('',(-41.4,-18.15,4.));
#208 = CARTESIAN_POINT('',(-43.07809748256,-21.51781764548,7.5));
#209 = CARTESIAN_POINT('',(-43.00603273354,-21.54207900903,
    6.812776607027));
#210 = CARTESIAN_POINT('',(-42.97012303491,-21.3067391784,6.083588010476
    ));
#211 = CARTESIAN_POINT('',(-42.81038005471,-20.96068343785,
    5.377961972304));
#212 = CARTESIAN_POINT('',(-42.58298887986,-20.45820049113,
    4.792530913297));
#213 = CARTESIAN_POINT('',(-42.31211115871,-19.89078555864,
    4.391497216151));
#214 = CARTESIAN_POINT('',(-42.01629555128,-19.3082568993,4.130023159808
    ));
#215 = CARTESIAN_POINT('',(-41.75954286895,-18.66640522436,4.));
#216 = CARTESIAN_POINT('',(-41.4,-18.15,4.));
#217 = CARTESIAN_POINT('',(-42.48904860161,-21.65,7.5));
#218 = CARTESIAN_POINT('',(-42.40760502641,-21.65613592293,
    6.812776607027));
#219 = CARTESIAN_POINT('',(-42.30688485604,-21.50443420897,
    6.101073421834));
#220 = CARTESIAN_POINT('',(-42.18688827982,-21.17746343093,
    5.419937683772));
#221 = CARTESIAN_POINT('',(-42.04920000646,-20.68461014069,
    4.842557347244));
#222 = CARTESIAN_POINT('',(-41.89699276562,-20.09768949847,
    4.421138696692));
#223 = CARTESIAN_POINT('',(-41.73469302568,-19.46385625069,
    4.140102160457));
#224 = CARTESIAN_POINT('',(-41.56734649932,-18.80600796885,4.));
#225 = CARTESIAN_POINT('',(-41.4,-18.15,4.));
#226 = CARTESIAN_POINT('',(-41.9,-21.65,7.5));
#227 = CARTESIAN_POINT('',(-41.8375,-21.65,6.812776607027));
#228 = CARTESIAN_POINT('',(-41.775,-21.49578723863,6.125552997735));
#229 = CARTESIAN_POINT('',(-41.7125,-21.18736323055,5.478703679827));
#230 = CARTESIAN_POINT('',(-41.64999999999,-20.73740564522,4.91259435477
    ));
#231 = CARTESIAN_POINT('',(-41.5875,-20.17129632017,4.46263676945));
#232 = CARTESIAN_POINT('',(-41.525,-19.52444700226,4.154212761364));
#233 = CARTESIAN_POINT('',(-41.4625,-18.83722339297,4.));
#234 = CARTESIAN_POINT('',(-41.4,-18.15,4.));
#235 = ADVANCED_FACE('',(#236,#306),#359,.T.);
#236 = FACE_BOUND('',#237,.T.);
#237 = EDGE_LOOP('',(#238,#248,#257,#265,#274,#282,#291,#299));
#238 = ORIENTED_EDGE('',*,*,#239,.F.);
#239 = EDGE_CURVE('',#240,#242,#244,.T.);
#240 = VERTEX_POINT('',#241);
#241 = CARTESIAN_POINT('',(-47.4,-21.15,29.));
#242 = VERTEX_POINT('',#243);
#243 = CARTESIAN_POINT('',(-47.4,21.15,29.));
#244 = LINE('',#245,#246);
#245 = CARTESIAN_POINT('',(-47.4,-24.15,29.));
#246 = VECTOR('',#247,1.);
#247 = DIRECTION('',(0.,1.,0.));
#248 = ORIENTED_EDGE('',*,*,#249,.T.);
#249 = EDGE_CURVE('',#240,#250,#252,.T.);
#250 = VERTEX_POINT('',#251);
#251 = CARTESIAN_POINT('',(-44.4,-24.15,29.));
#252 = CIRCLE('',#253,3.);
#253 = AXIS2_PLACEMENT_3D('',#254,#255,#256);
#254 = CARTESIAN_POINT('',(-44.4,-21.15,29.));
#255 = DIRECTION('',(-0.,0.,1.));
#256 = DIRECTION('',(0.,-1.,0.));
#257 = ORIENTED_EDGE('',*,*,#258,.T.);
#258 = EDGE_CURVE('',#250,#259,#261,.T.);
#259 = VERTEX_POINT('',#260);
#260 = CARTESIAN_POINT('',(44.4,-24.15,29.));
#261 = LINE('',#262,#263);
#262 = CARTESIAN_POINT('',(-47.4,-24.15,29.));
#263 = VECTOR('',#264,1.);
#264 = DIRECTION('',(1.,0.,0.));
#265 = ORIENTED_EDGE('',*,*,#266,.F.);
#266 = EDGE_CURVE('',#267,#259,#269,.T.);
#267 = VERTEX_POINT('',#268);
#268 = CARTESIAN_POINT('',(47.4,-21.15,29.));
#269 = CIRCLE('',#270,3.);
#270 = AXIS2_PLACEMENT_3D('',#271,#272,#273);
#271 = CARTESIAN_POINT('',(44.4,-21.15,29.));
#272 = DIRECTION('',(-0.,-0.,-1.));
#273 = DIRECTION('',(0.,-1.,0.));
#274 = ORIENTED_EDGE('',*,*,#275,.T.);
#275 = EDGE_CURVE('',#267,#276,#278,.T.);
#276 = VERTEX_POINT('',#277);
#277 = CARTESIAN_POINT('',(47.4,21.15,29.));
#278 = LINE('',#279,#280);
#279 = CARTESIAN_POINT('',(47.4,-24.15,29.));
#280 = VECTOR('',#281,1.);
#281 = DIRECTION('',(0.,1.,0.));
#282 = ORIENTED_EDGE('',*,*,#283,.T.);
#283 = EDGE_CURVE('',#276,#284,#286,.T.);
#284 = VERTEX_POINT('',#285);
#285 = CARTESIAN_POINT('',(44.4,24.15,29.));
#286 = CIRCLE('',#287,3.);
#287 = AXIS2_PLACEMENT_3D('',#288,#289,#290);
#288 = CARTESIAN_POINT('',(44.4,21.15,29.));
#289 = DIRECTION('',(-0.,0.,1.));
#290 = DIRECTION('',(0.,-1.,0.));
#291 = ORIENTED_EDGE('',*,*,#292,.F.);
#292 = EDGE_CURVE('',#293,#284,#295,.T.);
#293 = VERTEX_POINT('',#294);
#294 = CARTESIAN_POINT('',(-44.4,24.15,29.));
#295 = LINE('',#296,#297);
#296 = CARTESIAN_POINT('',(-47.4,24.15,29.));
#297 = VECTOR('',#298,1.);
#298 = DIRECTION('',(1.,0.,0.));
#299 = ORIENTED_EDGE('',*,*,#300,.F.);
#300 = EDGE_CURVE('',#242,#293,#301,.T.);
#301 = CIRCLE('',#302,3.);
#302 = AXIS2_PLACEMENT_3D('',#303,#304,#305);
#303 = CARTESIAN_POINT('',(-44.4,21.15,29.));
#304 = DIRECTION('',(-0.,-0.,-1.));
#305 = DIRECTION('',(0.,-1.,0.));
#306 = FACE_BOUND('',#307,.T.);
#307 = EDGE_LOOP('',(#308,#309,#310,#319,#327,#336,#344,#353));
#308 = ORIENTED_EDGE('',*,*,#53,.F.);
#309 = ORIENTED_EDGE('',*,*,#86,.T.);
#310 = ORIENTED_EDGE('',*,*,#311,.F.);
#311 = EDGE_CURVE('',#312,#79,#314,.T.);
#312 = VERTEX_POINT('',#313);
#313 = CARTESIAN_POINT('',(-41.9,21.65,29.));
#314 = CIRCLE('',#315,3.);
#315 = AXIS2_PLACEMENT_3D('',#316,#317,#318);
#316 = CARTESIAN_POINT('',(-41.9,18.65,29.));
#317 = DIRECTION('',(0.,0.,1.));
#318 = DIRECTION('',(-1.,0.,0.));
#319 = ORIENTED_EDGE('',*,*,#320,.F.);
#320 = EDGE_CURVE('',#321,#312,#323,.T.);
#321 = VERTEX_POINT('',#322);
#322 = CARTESIAN_POINT('',(41.9,21.65,29.));
#323 = LINE('',#324,#325);
#324 = CARTESIAN_POINT('',(-46.15,21.65,29.));
#325 = VECTOR('',#326,1.);
#326 = DIRECTION('',(-1.,0.,0.));
#327 = ORIENTED_EDGE('',*,*,#328,.F.);
#328 = EDGE_CURVE('',#329,#321,#331,.T.);
#329 = VERTEX_POINT('',#330);
#330 = CARTESIAN_POINT('',(44.9,18.65,29.));
#331 = CIRCLE('',#332,3.);
#332 = AXIS2_PLACEMENT_3D('',#333,#334,#335);
#333 = CARTESIAN_POINT('',(41.9,18.65,29.));
#334 = DIRECTION('',(0.,0.,1.));
#335 = DIRECTION('',(1.,0.,0.));
#336 = ORIENTED_EDGE('',*,*,#337,.F.);
#337 = EDGE_CURVE('',#338,#329,#340,.T.);
#338 = VERTEX_POINT('',#339);
#339 = CARTESIAN_POINT('',(44.9,-18.65,29.));
#340 = LINE('',#341,#342);
#341 = CARTESIAN_POINT('',(44.9,-22.9,29.));
#342 = VECTOR('',#343,1.);
#343 = DIRECTION('',(0.,1.,0.));
#344 = ORIENTED_EDGE('',*,*,#345,.F.);
#345 = EDGE_CURVE('',#346,#338,#348,.T.);
#346 = VERTEX_POINT('',#347);
#347 = CARTESIAN_POINT('',(41.9,-21.65,29.));
#348 = CIRCLE('',#349,3.);
#349 = AXIS2_PLACEMENT_3D('',#350,#351,#352);
#350 = CARTESIAN_POINT('',(41.9,-18.65,29.));
#351 = DIRECTION('',(0.,0.,1.));
#352 = DIRECTION('',(1.,0.,0.));
#353 = ORIENTED_EDGE('',*,*,#354,.T.);
#354 = EDGE_CURVE('',#346,#46,#355,.T.);
#355 = LINE('',#356,#357);
#356 = CARTESIAN_POINT('',(-46.15,-21.65,29.));
#357 = VECTOR('',#358,1.);
#358 = DIRECTION('',(-1.,0.,0.));
#359 = PLANE('',#360);
#360 = AXIS2_PLACEMENT_3D('',#361,#362,#363);
#361 = CARTESIAN_POINT('',(-47.4,-24.15,29.));
#362 = DIRECTION('',(0.,0.,1.));
#363 = DIRECTION('',(1.,0.,0.));
#364 = ADVANCED_FACE('',(#365),#383,.T.);
#365 = FACE_BOUND('',#366,.T.);
#366 = EDGE_LOOP('',(#367,#375,#381,#382));
#367 = ORIENTED_EDGE('',*,*,#368,.F.);
#368 = EDGE_CURVE('',#369,#346,#371,.T.);
#369 = VERTEX_POINT('',#370);
#370 = CARTESIAN_POINT('',(41.9,-21.65,7.5));
#371 = LINE('',#372,#373);
#372 = CARTESIAN_POINT('',(41.9,-21.65,3.));
#373 = VECTOR('',#374,1.);
#374 = DIRECTION('',(0.,0.,1.));
#375 = ORIENTED_EDGE('',*,*,#376,.F.);
#376 = EDGE_CURVE('',#32,#369,#377,.T.);
#377 = LINE('',#378,#379);
#378 = CARTESIAN_POINT('',(-41.9,-21.65,7.5));
#379 = VECTOR('',#380,1.);
#380 = DIRECTION('',(1.,0.,0.));
#381 = ORIENTED_EDGE('',*,*,#45,.T.);
#382 = ORIENTED_EDGE('',*,*,#354,.F.);
#383 = PLANE('',#384);
#384 = AXIS2_PLACEMENT_3D('',#385,#386,#387);
#385 = CARTESIAN_POINT('',(-44.9,-21.65,3.));
#386 = DIRECTION('',(0.,1.,0.));
#387 = DIRECTION('',(0.,0.,1.));
#388 = ADVANCED_FACE('',(#389),#438,.F.);
#389 = FACE_BOUND('',#390,.F.);
#390 = EDGE_LOOP('',(#391,#392,#406,#412,#413,#414,#423,#431));
#391 = ORIENTED_EDGE('',*,*,#68,.F.);
#392 = ORIENTED_EDGE('',*,*,#393,.T.);
#393 = EDGE_CURVE('',#69,#394,#396,.T.);
#394 = VERTEX_POINT('',#395);
#395 = CARTESIAN_POINT('',(-41.4,18.15,4.));
#396 = B_SPLINE_CURVE_WITH_KNOTS('',8,(#397,#398,#399,#400,#401,#402,
    #403,#404,#405),.UNSPECIFIED.,.F.,.F.,(9,9),(0.,1.),
  .PIECEWISE_BEZIER_KNOTS.);
#397 = CARTESIAN_POINT('',(-44.9,18.65,7.5));
#398 = CARTESIAN_POINT('',(-44.9,18.5875,6.812776607027));
#399 = CARTESIAN_POINT('',(-44.74578723863,18.525,6.125552997735));
#400 = CARTESIAN_POINT('',(-44.43736323055,18.4625,5.478703679827));
#401 = CARTESIAN_POINT('',(-43.98740564522,18.4,4.91259435477));
#402 = CARTESIAN_POINT('',(-43.42129632017,18.3375,4.46263676945));
#403 = CARTESIAN_POINT('',(-42.77444700226,18.275,4.154212761364));
#404 = CARTESIAN_POINT('',(-42.08722339297,18.2125,4.));
#405 = CARTESIAN_POINT('',(-41.4,18.15,4.));
#406 = ORIENTED_EDGE('',*,*,#407,.T.);
#407 = EDGE_CURVE('',#394,#132,#408,.T.);
#408 = LINE('',#409,#410);
#409 = CARTESIAN_POINT('',(-41.4,18.65,4.));
#410 = VECTOR('',#411,1.);
#411 = DIRECTION('',(0.,-1.,0.));
#412 = ORIENTED_EDGE('',*,*,#131,.F.);
#413 = ORIENTED_EDGE('',*,*,#93,.F.);
#414 = ORIENTED_EDGE('',*,*,#415,.T.);
#415 = EDGE_CURVE('',#94,#416,#418,.T.);
#416 = VERTEX_POINT('',#417);
#417 = CARTESIAN_POINT('',(-44.4,-7.25,5.697224362268));
#418 = CIRCLE('',#419,3.5);
#419 = AXIS2_PLACEMENT_3D('',#420,#421,#422);
#420 = CARTESIAN_POINT('',(-41.4,-7.25,7.5));
#421 = DIRECTION('',(-0.,-1.,-0.));
#422 = DIRECTION('',(-1.,0.,0.));
#423 = ORIENTED_EDGE('',*,*,#424,.F.);
#424 = EDGE_CURVE('',#425,#416,#427,.T.);
#425 = VERTEX_POINT('',#426);
#426 = CARTESIAN_POINT('',(-44.4,7.25,5.697224362268));
#427 = LINE('',#428,#429);
#428 = CARTESIAN_POINT('',(-44.4,18.65,5.697224362268));
#429 = VECTOR('',#430,1.);
#430 = DIRECTION('',(0.,-1.,0.));
#431 = ORIENTED_EDGE('',*,*,#432,.F.);
#432 = EDGE_CURVE('',#71,#425,#433,.T.);
#433 = CIRCLE('',#434,3.5);
#434 = AXIS2_PLACEMENT_3D('',#435,#436,#437);
#435 = CARTESIAN_POINT('',(-41.4,7.25,7.5));
#436 = DIRECTION('',(-0.,-1.,-0.));
#437 = DIRECTION('',(-1.,0.,0.));
#438 = CYLINDRICAL_SURFACE('',#439,3.5);
#439 = AXIS2_PLACEMENT_3D('',#440,#441,#442);
#440 = CARTESIAN_POINT('',(-41.4,18.65,7.5));
#441 = DIRECTION('',(0.,-1.,0.));
#442 = DIRECTION('',(-1.,0.,0.));
#443 = ADVANCED_FACE('',(#444),#478,.F.);
#444 = FACE_BOUND('',#445,.F.);
#445 = EDGE_LOOP('',(#446,#456,#464,#470,#471,#472));
#446 = ORIENTED_EDGE('',*,*,#447,.F.);
#447 = EDGE_CURVE('',#448,#450,#452,.T.);
#448 = VERTEX_POINT('',#449);
#449 = CARTESIAN_POINT('',(-47.4,7.25,5.));
#450 = VERTEX_POINT('',#451);
#451 = CARTESIAN_POINT('',(-44.4,7.25,5.));
#452 = LINE('',#453,#454);
#453 = CARTESIAN_POINT('',(-47.9,7.25,5.));
#454 = VECTOR('',#455,1.);
#455 = DIRECTION('',(1.,0.,0.));
#456 = ORIENTED_EDGE('',*,*,#457,.F.);
#457 = EDGE_CURVE('',#458,#448,#460,.T.);
#458 = VERTEX_POINT('',#459);
#459 = CARTESIAN_POINT('',(-47.4,7.25,16.));
#460 = LINE('',#461,#462);
#461 = CARTESIAN_POINT('',(-47.4,7.25,9.75));
#462 = VECTOR('',#463,1.);
#463 = DIRECTION('',(0.,0.,-1.));
#464 = ORIENTED_EDGE('',*,*,#465,.T.);
#465 = EDGE_CURVE('',#458,#110,#466,.T.);
#466 = LINE('',#467,#468);
#467 = CARTESIAN_POINT('',(-47.9,7.25,16.));
#468 = VECTOR('',#469,1.);
#469 = DIRECTION('',(1.,0.,0.));
#470 = ORIENTED_EDGE('',*,*,#117,.F.);
#471 = ORIENTED_EDGE('',*,*,#432,.T.);
#472 = ORIENTED_EDGE('',*,*,#473,.F.);
#473 = EDGE_CURVE('',#450,#425,#474,.T.);
#474 = LINE('',#475,#476);
#475 = CARTESIAN_POINT('',(-44.4,7.25,5.));
#476 = VECTOR('',#477,1.);
#477 = DIRECTION('',(0.,0.,1.));
#478 = PLANE('',#479);
#479 = AXIS2_PLACEMENT_3D('',#480,#481,#482);
#480 = CARTESIAN_POINT('',(-47.9,7.25,5.));
#481 = DIRECTION('',(0.,1.,0.));
#482 = DIRECTION('',(0.,0.,1.));
#483 = ADVANCED_FACE('',(#484),#502,.F.);
#484 = FACE_BOUND('',#485,.F.);
#485 = EDGE_LOOP('',(#486,#487,#495,#501));
#486 = ORIENTED_EDGE('',*,*,#465,.F.);
#487 = ORIENTED_EDGE('',*,*,#488,.F.);
#488 = EDGE_CURVE('',#489,#458,#491,.T.);
#489 = VERTEX_POINT('',#490);
#490 = CARTESIAN_POINT('',(-47.4,-7.25,16.));
#491 = LINE('',#492,#493);
#492 = CARTESIAN_POINT('',(-47.4,-3.625,16.));
#493 = VECTOR('',#494,1.);
#494 = DIRECTION('',(0.,1.,0.));
#495 = ORIENTED_EDGE('',*,*,#496,.T.);
#496 = EDGE_CURVE('',#489,#102,#497,.T.);
#497 = LINE('',#498,#499);
#498 = CARTESIAN_POINT('',(-47.9,-7.25,16.));
#499 = VECTOR('',#500,1.);
#500 = DIRECTION('',(1.,0.,0.));
#501 = ORIENTED_EDGE('',*,*,#109,.F.);
#502 = PLANE('',#503);
#503 = AXIS2_PLACEMENT_3D('',#504,#505,#506);
#504 = CARTESIAN_POINT('',(-47.9,-7.25,16.));
#505 = DIRECTION('',(0.,0.,1.));
#506 = DIRECTION('',(1.,0.,0.));
#507 = ADVANCED_FACE('',(#508),#535,.T.);
#508 = FACE_BOUND('',#509,.T.);
#509 = EDGE_LOOP('',(#510,#520,#526,#527,#528,#529));
#510 = ORIENTED_EDGE('',*,*,#511,.F.);
#511 = EDGE_CURVE('',#512,#514,#516,.T.);
#512 = VERTEX_POINT('',#513);
#513 = CARTESIAN_POINT('',(-47.4,-7.25,5.));
#514 = VERTEX_POINT('',#515);
#515 = CARTESIAN_POINT('',(-44.4,-7.25,5.));
#516 = LINE('',#517,#518);
#517 = CARTESIAN_POINT('',(-47.9,-7.25,5.));
#518 = VECTOR('',#519,1.);
#519 = DIRECTION('',(1.,0.,0.));
#520 = ORIENTED_EDGE('',*,*,#521,.F.);
#521 = EDGE_CURVE('',#489,#512,#522,.T.);
#522 = LINE('',#523,#524);
#523 = CARTESIAN_POINT('',(-47.4,-7.25,9.75));
#524 = VECTOR('',#525,1.);
#525 = DIRECTION('',(0.,0.,-1.));
#526 = ORIENTED_EDGE('',*,*,#496,.T.);
#527 = ORIENTED_EDGE('',*,*,#101,.F.);
#528 = ORIENTED_EDGE('',*,*,#415,.T.);
#529 = ORIENTED_EDGE('',*,*,#530,.F.);
#530 = EDGE_CURVE('',#514,#416,#531,.T.);
#531 = LINE('',#532,#533);
#532 = CARTESIAN_POINT('',(-44.4,-7.25,5.));
#533 = VECTOR('',#534,1.);
#534 = DIRECTION('',(0.,0.,1.));
#535 = PLANE('',#536);
#536 = AXIS2_PLACEMENT_3D('',#537,#538,#539);
#537 = CARTESIAN_POINT('',(-47.9,-7.25,5.));
#538 = DIRECTION('',(0.,1.,0.));
#539 = DIRECTION('',(0.,0.,1.));
#540 = ADVANCED_FACE('',(#541),#565,.F.);
#541 = FACE_BOUND('',#542,.T.);
#542 = EDGE_LOOP('',(#543,#544,#558,#564));
#543 = ORIENTED_EDGE('',*,*,#78,.F.);
#544 = ORIENTED_EDGE('',*,*,#545,.F.);
#545 = EDGE_CURVE('',#546,#69,#548,.T.);
#546 = VERTEX_POINT('',#547);
#547 = CARTESIAN_POINT('',(-41.9,21.65,7.5));
#548 = B_SPLINE_CURVE_WITH_KNOTS('',8,(#549,#550,#551,#552,#553,#554,
    #555,#556,#557),.UNSPECIFIED.,.F.,.F.,(9,9),(0.,1.),
  .PIECEWISE_BEZIER_KNOTS.);
#549 = CARTESIAN_POINT('',(-41.9,21.65,7.5));
#550 = CARTESIAN_POINT('',(-42.48904860162,21.65,7.5));
#551 = CARTESIAN_POINT('',(-43.07809748255,21.517817645486,7.5));
#552 = CARTESIAN_POINT('',(-43.63253963357,21.253454154392,7.5));
#553 = CARTESIAN_POINT('',(-44.11777633494,20.867776334955,7.5));
#554 = CARTESIAN_POINT('',(-44.50345415439,20.382539633564,7.5));
#555 = CARTESIAN_POINT('',(-44.76781764548,19.82809748256,7.5));
#556 = CARTESIAN_POINT('',(-44.9,19.239048601616,7.5));
#557 = CARTESIAN_POINT('',(-44.9,18.65,7.5));
#558 = ORIENTED_EDGE('',*,*,#559,.T.);
#559 = EDGE_CURVE('',#546,#312,#560,.T.);
#560 = LINE('',#561,#562);
#561 = CARTESIAN_POINT('',(-41.9,21.65,3.));
#562 = VECTOR('',#563,1.);
#563 = DIRECTION('',(0.,0.,1.));
#564 = ORIENTED_EDGE('',*,*,#311,.T.);
#565 = CYLINDRICAL_SURFACE('',#566,3.);
#566 = AXIS2_PLACEMENT_3D('',#567,#568,#569);
#567 = CARTESIAN_POINT('',(-41.9,18.65,3.));
#568 = DIRECTION('',(0.,0.,1.));
#569 = DIRECTION('',(-1.,0.,0.));
#570 = ADVANCED_FACE('',(#571),#593,.F.);
#571 = FACE_BOUND('',#572,.F.);
#572 = EDGE_LOOP('',(#573,#574,#582,#592));
#573 = ORIENTED_EDGE('',*,*,#144,.T.);
#574 = ORIENTED_EDGE('',*,*,#575,.T.);
#575 = EDGE_CURVE('',#132,#576,#578,.T.);
#576 = VERTEX_POINT('',#577);
#577 = CARTESIAN_POINT('',(41.4,-18.15,4.));
#578 = LINE('',#579,#580);
#579 = CARTESIAN_POINT('',(-41.9,-18.15,4.));
#580 = VECTOR('',#581,1.);
#581 = DIRECTION('',(1.,0.,0.));
#582 = ORIENTED_EDGE('',*,*,#583,.F.);
#583 = EDGE_CURVE('',#369,#576,#584,.T.);
#584 = B_SPLINE_CURVE_WITH_KNOTS('',6,(#585,#586,#587,#588,#589,#590,
    #591),.UNSPECIFIED.,.F.,.F.,(7,7),(0.,1.),.PIECEWISE_BEZIER_KNOTS.);
#585 = CARTESIAN_POINT('',(41.9,-21.65,7.5));
#586 = CARTESIAN_POINT('',(41.816666666667,-21.65,6.583702142703));
#587 = CARTESIAN_POINT('',(41.733333333333,-21.36220309892,
    5.667482247532));
#588 = CARTESIAN_POINT('',(41.65,-20.78616552374,4.863834476259));
#589 = CARTESIAN_POINT('',(41.566666666666,-19.98251775246,
    4.287796901071));
#590 = CARTESIAN_POINT('',(41.483333333333,-19.06629785729,4.));
#591 = CARTESIAN_POINT('',(41.4,-18.15,4.));
#592 = ORIENTED_EDGE('',*,*,#376,.F.);
#593 = CYLINDRICAL_SURFACE('',#594,3.5);
#594 = AXIS2_PLACEMENT_3D('',#595,#596,#597);
#595 = CARTESIAN_POINT('',(-41.9,-18.15,7.5));
#596 = DIRECTION('',(1.,0.,0.));
#597 = DIRECTION('',(0.,-1.,0.));
#598 = ADVANCED_FACE('',(#599,#624),#635,.T.);
#599 = FACE_BOUND('',#600,.T.);
#600 = EDGE_LOOP('',(#601,#609,#610,#618));
#601 = ORIENTED_EDGE('',*,*,#602,.T.);
#602 = EDGE_CURVE('',#603,#240,#605,.T.);
#603 = VERTEX_POINT('',#604);
#604 = CARTESIAN_POINT('',(-47.4,-21.15,0.));
#605 = LINE('',#606,#607);
#606 = CARTESIAN_POINT('',(-47.4,-21.15,0.));
#607 = VECTOR('',#608,1.);
#608 = DIRECTION('',(0.,0.,1.));
#609 = ORIENTED_EDGE('',*,*,#239,.T.);
#610 = ORIENTED_EDGE('',*,*,#611,.F.);
#611 = EDGE_CURVE('',#612,#242,#614,.T.);
#612 = VERTEX_POINT('',#613);
#613 = CARTESIAN_POINT('',(-47.4,21.15,0.));
#614 = LINE('',#615,#616);
#615 = CARTESIAN_POINT('',(-47.4,21.15,4.));
#616 = VECTOR('',#617,1.);
#617 = DIRECTION('',(0.,0.,1.));
#618 = ORIENTED_EDGE('',*,*,#619,.F.);
#619 = EDGE_CURVE('',#603,#612,#620,.T.);
#620 = LINE('',#621,#622);
#621 = CARTESIAN_POINT('',(-47.4,-24.15,0.));
#622 = VECTOR('',#623,1.);
#623 = DIRECTION('',(0.,1.,0.));
#624 = FACE_BOUND('',#625,.T.);
#625 = EDGE_LOOP('',(#626,#627,#628,#634));
#626 = ORIENTED_EDGE('',*,*,#488,.F.);
#627 = ORIENTED_EDGE('',*,*,#521,.T.);
#628 = ORIENTED_EDGE('',*,*,#629,.T.);
#629 = EDGE_CURVE('',#512,#448,#630,.T.);
#630 = LINE('',#631,#632);
#631 = CARTESIAN_POINT('',(-47.4,-3.625,5.));
#632 = VECTOR('',#633,1.);
#633 = DIRECTION('',(0.,1.,0.));
#634 = ORIENTED_EDGE('',*,*,#457,.F.);
#635 = PLANE('',#636);
#636 = AXIS2_PLACEMENT_3D('',#637,#638,#639);
#637 = CARTESIAN_POINT('',(-47.4,3.986214506368E-16,14.5));
#638 = DIRECTION('',(-1.,-0.,-0.));
#639 = DIRECTION('',(0.,0.,-1.));
#640 = ADVANCED_FACE('',(#641),#660,.T.);
#641 = FACE_BOUND('',#642,.T.);
#642 = EDGE_LOOP('',(#643,#644,#645,#654));
#643 = ORIENTED_EDGE('',*,*,#249,.F.);
#644 = ORIENTED_EDGE('',*,*,#602,.F.);
#645 = ORIENTED_EDGE('',*,*,#646,.T.);
#646 = EDGE_CURVE('',#603,#647,#649,.T.);
#647 = VERTEX_POINT('',#648);
#648 = CARTESIAN_POINT('',(-44.4,-24.15,0.));
#649 = CIRCLE('',#650,3.);
#650 = AXIS2_PLACEMENT_3D('',#651,#652,#653);
#651 = CARTESIAN_POINT('',(-44.4,-21.15,0.));
#652 = DIRECTION('',(-0.,0.,1.));
#653 = DIRECTION('',(0.,-1.,0.));
#654 = ORIENTED_EDGE('',*,*,#655,.T.);
#655 = EDGE_CURVE('',#647,#250,#656,.T.);
#656 = LINE('',#657,#658);
#657 = CARTESIAN_POINT('',(-44.4,-24.15,4.));
#658 = VECTOR('',#659,1.);
#659 = DIRECTION('',(0.,0.,1.));
#660 = CYLINDRICAL_SURFACE('',#661,3.);
#661 = AXIS2_PLACEMENT_3D('',#662,#663,#664);
#662 = CARTESIAN_POINT('',(-44.4,-21.15,0.));
#663 = DIRECTION('',(0.,0.,1.));
#664 = DIRECTION('',(-1.,0.,0.));
#665 = ADVANCED_FACE('',(#666),#685,.T.);
#666 = FACE_BOUND('',#667,.F.);
#667 = EDGE_LOOP('',(#668,#669,#678,#684));
#668 = ORIENTED_EDGE('',*,*,#611,.F.);
#669 = ORIENTED_EDGE('',*,*,#670,.T.);
#670 = EDGE_CURVE('',#612,#671,#673,.T.);
#671 = VERTEX_POINT('',#672);
#672 = CARTESIAN_POINT('',(-44.4,24.15,0.));
#673 = CIRCLE('',#674,3.);
#674 = AXIS2_PLACEMENT_3D('',#675,#676,#677);
#675 = CARTESIAN_POINT('',(-44.4,21.15,0.));
#676 = DIRECTION('',(-0.,-0.,-1.));
#677 = DIRECTION('',(0.,-1.,0.));
#678 = ORIENTED_EDGE('',*,*,#679,.T.);
#679 = EDGE_CURVE('',#671,#293,#680,.T.);
#680 = LINE('',#681,#682);
#681 = CARTESIAN_POINT('',(-44.4,24.15,0.));
#682 = VECTOR('',#683,1.);
#683 = DIRECTION('',(0.,0.,1.));
#684 = ORIENTED_EDGE('',*,*,#300,.F.);
#685 = CYLINDRICAL_SURFACE('',#686,3.);
#686 = AXIS2_PLACEMENT_3D('',#687,#688,#689);
#687 = CARTESIAN_POINT('',(-44.4,21.15,0.));
#688 = DIRECTION('',(0.,0.,1.));
#689 = DIRECTION('',(-1.,0.,0.));
#690 = ADVANCED_FACE('',(#691),#709,.T.);
#691 = FACE_BOUND('',#692,.T.);
#692 = EDGE_LOOP('',(#693,#701,#707,#708));
#693 = ORIENTED_EDGE('',*,*,#694,.T.);
#694 = EDGE_CURVE('',#647,#695,#697,.T.);
#695 = VERTEX_POINT('',#696);
#696 = CARTESIAN_POINT('',(44.4,-24.15,0.));
#697 = LINE('',#698,#699);
#698 = CARTESIAN_POINT('',(-47.4,-24.15,0.));
#699 = VECTOR('',#700,1.);
#700 = DIRECTION('',(1.,0.,0.));
#701 = ORIENTED_EDGE('',*,*,#702,.T.);
#702 = EDGE_CURVE('',#695,#259,#703,.T.);
#703 = LINE('',#704,#705);
#704 = CARTESIAN_POINT('',(44.4,-24.15,0.));
#705 = VECTOR('',#706,1.);
#706 = DIRECTION('',(0.,0.,1.));
#707 = ORIENTED_EDGE('',*,*,#258,.F.);
#708 = ORIENTED_EDGE('',*,*,#655,.F.);
#709 = PLANE('',#710);
#710 = AXIS2_PLACEMENT_3D('',#711,#712,#713);
#711 = CARTESIAN_POINT('',(-3.619063170255E-16,-24.15,14.5));
#712 = DIRECTION('',(-0.,-1.,-0.));
#713 = DIRECTION('',(0.,0.,-1.));
#714 = ADVANCED_FACE('',(#715,#733,#767,#801),#835,.T.);
#715 = FACE_BOUND('',#716,.T.);
#716 = EDGE_LOOP('',(#717,#725,#726,#727));
#717 = ORIENTED_EDGE('',*,*,#718,.F.);
#718 = EDGE_CURVE('',#671,#719,#721,.T.);
#719 = VERTEX_POINT('',#720);
#720 = CARTESIAN_POINT('',(44.4,24.15,0.));
#721 = LINE('',#722,#723);
#722 = CARTESIAN_POINT('',(-47.4,24.15,0.));
#723 = VECTOR('',#724,1.);
#724 = DIRECTION('',(1.,0.,0.));
#725 = ORIENTED_EDGE('',*,*,#679,.T.);
#726 = ORIENTED_EDGE('',*,*,#292,.T.);
#727 = ORIENTED_EDGE('',*,*,#728,.F.);
#728 = EDGE_CURVE('',#719,#284,#729,.T.);
#729 = LINE('',#730,#731);
#730 = CARTESIAN_POINT('',(44.4,24.15,4.));
#731 = VECTOR('',#732,1.);
#732 = DIRECTION('',(0.,0.,1.));
#733 = FACE_BOUND('',#734,.T.);
#734 = EDGE_LOOP('',(#735,#745,#753,#761));
#735 = ORIENTED_EDGE('',*,*,#736,.F.);
#736 = EDGE_CURVE('',#737,#739,#741,.T.);
#737 = VERTEX_POINT('',#738);
#738 = CARTESIAN_POINT('',(-28.35,24.15,24.5));
#739 = VERTEX_POINT('',#740);
#740 = CARTESIAN_POINT('',(-21.75,24.15,24.5));
#741 = LINE('',#742,#743);
#742 = CARTESIAN_POINT('',(-14.175,24.15,24.5));
#743 = VECTOR('',#744,1.);
#744 = DIRECTION('',(1.,0.,0.));
#745 = ORIENTED_EDGE('',*,*,#746,.T.);
#746 = EDGE_CURVE('',#737,#747,#749,.T.);
#747 = VERTEX_POINT('',#748);
#748 = CARTESIAN_POINT('',(-28.35,24.15,21.));
#749 = LINE('',#750,#751);
#750 = CARTESIAN_POINT('',(-28.35,24.15,17.75));
#751 = VECTOR('',#752,1.);
#752 = DIRECTION('',(0.,0.,-1.));
#753 = ORIENTED_EDGE('',*,*,#754,.T.);
#754 = EDGE_CURVE('',#747,#755,#757,.T.);
#755 = VERTEX_POINT('',#756);
#756 = CARTESIAN_POINT('',(-21.75,24.15,21.));
#757 = LINE('',#758,#759);
#758 = CARTESIAN_POINT('',(-14.175,24.15,21.));
#759 = VECTOR('',#760,1.);
#760 = DIRECTION('',(1.,0.,0.));
#761 = ORIENTED_EDGE('',*,*,#762,.F.);
#762 = EDGE_CURVE('',#739,#755,#763,.T.);
#763 = LINE('',#764,#765);
#764 = CARTESIAN_POINT('',(-21.75,24.15,17.75));
#765 = VECTOR('',#766,1.);
#766 = DIRECTION('',(0.,0.,-1.));
#767 = FACE_BOUND('',#768,.T.);
#768 = EDGE_LOOP('',(#769,#779,#787,#795));
#769 = ORIENTED_EDGE('',*,*,#770,.F.);
#770 = EDGE_CURVE('',#771,#773,#775,.T.);
#771 = VERTEX_POINT('',#772);
#772 = CARTESIAN_POINT('',(-17.35,24.15,24.5));
#773 = VERTEX_POINT('',#774);
#774 = CARTESIAN_POINT('',(-10.75,24.15,24.5));
#775 = LINE('',#776,#777);
#776 = CARTESIAN_POINT('',(-8.675,24.15,24.5));
#777 = VECTOR('',#778,1.);
#778 = DIRECTION('',(1.,0.,0.));
#779 = ORIENTED_EDGE('',*,*,#780,.T.);
#780 = EDGE_CURVE('',#771,#781,#783,.T.);
#781 = VERTEX_POINT('',#782);
#782 = CARTESIAN_POINT('',(-17.35,24.15,21.));
#783 = LINE('',#784,#785);
#784 = CARTESIAN_POINT('',(-17.35,24.15,17.75));
#785 = VECTOR('',#786,1.);
#786 = DIRECTION('',(0.,0.,-1.));
#787 = ORIENTED_EDGE('',*,*,#788,.T.);
#788 = EDGE_CURVE('',#781,#789,#791,.T.);
#789 = VERTEX_POINT('',#790);
#790 = CARTESIAN_POINT('',(-10.75,24.15,21.));
#791 = LINE('',#792,#793);
#792 = CARTESIAN_POINT('',(-8.675,24.15,21.));
#793 = VECTOR('',#794,1.);
#794 = DIRECTION('',(1.,0.,0.));
#795 = ORIENTED_EDGE('',*,*,#796,.F.);
#796 = EDGE_CURVE('',#773,#789,#797,.T.);
#797 = LINE('',#798,#799);
#798 = CARTESIAN_POINT('',(-10.75,24.15,17.75));
#799 = VECTOR('',#800,1.);
#800 = DIRECTION('',(0.,0.,-1.));
#801 = FACE_BOUND('',#802,.T.);
#802 = EDGE_LOOP('',(#803,#813,#821,#829));
#803 = ORIENTED_EDGE('',*,*,#804,.F.);
#804 = EDGE_CURVE('',#805,#807,#809,.T.);
#805 = VERTEX_POINT('',#806);
#806 = CARTESIAN_POINT('',(-6.35,24.15,24.5));
#807 = VERTEX_POINT('',#808);
#808 = CARTESIAN_POINT('',(0.25,24.15,24.5));
#809 = LINE('',#810,#811);
#810 = CARTESIAN_POINT('',(-3.175,24.15,24.5));
#811 = VECTOR('',#812,1.);
#812 = DIRECTION('',(1.,0.,0.));
#813 = ORIENTED_EDGE('',*,*,#814,.T.);
#814 = EDGE_CURVE('',#805,#815,#817,.T.);
#815 = VERTEX_POINT('',#816);
#816 = CARTESIAN_POINT('',(-6.35,24.15,21.));
#817 = LINE('',#818,#819);
#818 = CARTESIAN_POINT('',(-6.35,24.15,17.75));
#819 = VECTOR('',#820,1.);
#820 = DIRECTION('',(0.,0.,-1.));
#821 = ORIENTED_EDGE('',*,*,#822,.T.);
#822 = EDGE_CURVE('',#815,#823,#825,.T.);
#823 = VERTEX_POINT('',#824);
#824 = CARTESIAN_POINT('',(0.25,24.15,21.));
#825 = LINE('',#826,#827);
#826 = CARTESIAN_POINT('',(-3.175,24.15,21.));
#827 = VECTOR('',#828,1.);
#828 = DIRECTION('',(1.,0.,0.));
#829 = ORIENTED_EDGE('',*,*,#830,.F.);
#830 = EDGE_CURVE('',#807,#823,#831,.T.);
#831 = LINE('',#832,#833);
#832 = CARTESIAN_POINT('',(0.25,24.15,17.75));
#833 = VECTOR('',#834,1.);
#834 = DIRECTION('',(0.,0.,-1.));
#835 = PLANE('',#836);
#836 = AXIS2_PLACEMENT_3D('',#837,#838,#839);
#837 = CARTESIAN_POINT('',(-6.031771950425E-16,24.15,14.5));
#838 = DIRECTION('',(0.,1.,0.));
#839 = DIRECTION('',(0.,0.,1.));
#840 = ADVANCED_FACE('',(#841),#860,.T.);
#841 = FACE_BOUND('',#842,.F.);
#842 = EDGE_LOOP('',(#843,#851,#858,#859));
#843 = ORIENTED_EDGE('',*,*,#844,.F.);
#844 = EDGE_CURVE('',#845,#267,#847,.T.);
#845 = VERTEX_POINT('',#846);
#846 = CARTESIAN_POINT('',(47.4,-21.15,0.));
#847 = LINE('',#848,#849);
#848 = CARTESIAN_POINT('',(47.4,-21.15,4.));
#849 = VECTOR('',#850,1.);
#850 = DIRECTION('',(0.,0.,1.));
#851 = ORIENTED_EDGE('',*,*,#852,.T.);
#852 = EDGE_CURVE('',#845,#695,#853,.T.);
#853 = CIRCLE('',#854,3.);
#854 = AXIS2_PLACEMENT_3D('',#855,#856,#857);
#855 = CARTESIAN_POINT('',(44.4,-21.15,0.));
#856 = DIRECTION('',(-0.,-0.,-1.));
#857 = DIRECTION('',(0.,-1.,0.));
#858 = ORIENTED_EDGE('',*,*,#702,.T.);
#859 = ORIENTED_EDGE('',*,*,#266,.F.);
#860 = CYLINDRICAL_SURFACE('',#861,3.);
#861 = AXIS2_PLACEMENT_3D('',#862,#863,#864);
#862 = CARTESIAN_POINT('',(44.4,-21.15,0.));
#863 = DIRECTION('',(0.,0.,1.));
#864 = DIRECTION('',(1.,0.,0.));
#865 = ADVANCED_FACE('',(#866),#885,.T.);
#866 = FACE_BOUND('',#867,.T.);
#867 = EDGE_LOOP('',(#868,#869,#877,#884));
#868 = ORIENTED_EDGE('',*,*,#283,.F.);
#869 = ORIENTED_EDGE('',*,*,#870,.F.);
#870 = EDGE_CURVE('',#871,#276,#873,.T.);
#871 = VERTEX_POINT('',#872);
#872 = CARTESIAN_POINT('',(47.4,21.15,0.));
#873 = LINE('',#874,#875);
#874 = CARTESIAN_POINT('',(47.4,21.15,0.));
#875 = VECTOR('',#876,1.);
#876 = DIRECTION('',(0.,0.,1.));
#877 = ORIENTED_EDGE('',*,*,#878,.T.);
#878 = EDGE_CURVE('',#871,#719,#879,.T.);
#879 = CIRCLE('',#880,3.);
#880 = AXIS2_PLACEMENT_3D('',#881,#882,#883);
#881 = CARTESIAN_POINT('',(44.4,21.15,0.));
#882 = DIRECTION('',(-0.,0.,1.));
#883 = DIRECTION('',(0.,-1.,0.));
#884 = ORIENTED_EDGE('',*,*,#728,.T.);
#885 = CYLINDRICAL_SURFACE('',#886,3.);
#886 = AXIS2_PLACEMENT_3D('',#887,#888,#889);
#887 = CARTESIAN_POINT('',(44.4,21.15,0.));
#888 = DIRECTION('',(0.,0.,1.));
#889 = DIRECTION('',(1.,0.,0.));
#890 = ADVANCED_FACE('',(#891),#902,.T.);
#891 = FACE_BOUND('',#892,.T.);
#892 = EDGE_LOOP('',(#893,#899,#900,#901));
#893 = ORIENTED_EDGE('',*,*,#894,.T.);
#894 = EDGE_CURVE('',#845,#871,#895,.T.);
#895 = LINE('',#896,#897);
#896 = CARTESIAN_POINT('',(47.4,-24.15,0.));
#897 = VECTOR('',#898,1.);
#898 = DIRECTION('',(0.,1.,0.));
#899 = ORIENTED_EDGE('',*,*,#870,.T.);
#900 = ORIENTED_EDGE('',*,*,#275,.F.);
#901 = ORIENTED_EDGE('',*,*,#844,.F.);
#902 = PLANE('',#903);
#903 = AXIS2_PLACEMENT_3D('',#904,#905,#906);
#904 = CARTESIAN_POINT('',(47.4,0.,14.5));
#905 = DIRECTION('',(1.,0.,0.));
#906 = DIRECTION('',(0.,0.,1.));
#907 = ADVANCED_FACE('',(#908),#932,.F.);
#908 = FACE_BOUND('',#909,.T.);
#909 = EDGE_LOOP('',(#910,#918,#930,#931));
#910 = ORIENTED_EDGE('',*,*,#911,.F.);
#911 = EDGE_CURVE('',#912,#338,#914,.T.);
#912 = VERTEX_POINT('',#913);
#913 = CARTESIAN_POINT('',(44.9,-18.65,7.5));
#914 = LINE('',#915,#916);
#915 = CARTESIAN_POINT('',(44.9,-18.65,3.));
#916 = VECTOR('',#917,1.);
#917 = DIRECTION('',(0.,0.,1.));
#918 = ORIENTED_EDGE('',*,*,#919,.F.);
#919 = EDGE_CURVE('',#369,#912,#920,.T.);
#920 = B_SPLINE_CURVE_WITH_KNOTS('',8,(#921,#922,#923,#924,#925,#926,
    #927,#928,#929),.UNSPECIFIED.,.F.,.F.,(9,9),(0.,1.),
  .PIECEWISE_BEZIER_KNOTS.);
#921 = CARTESIAN_POINT('',(41.9,-21.65,7.5));
#922 = CARTESIAN_POINT('',(42.48904860162,-21.65,7.5));
#923 = CARTESIAN_POINT('',(43.078097482552,-21.51781764548,7.5));
#924 = CARTESIAN_POINT('',(43.632539633578,-21.2534541544,7.5));
#925 = CARTESIAN_POINT('',(44.117776334945,-20.86777633494,7.5));
#926 = CARTESIAN_POINT('',(44.503454154398,-20.38253963358,7.5));
#927 = CARTESIAN_POINT('',(44.767817645485,-19.82809748254,7.5));
#928 = CARTESIAN_POINT('',(44.9,-19.23904860162,7.5));
#929 = CARTESIAN_POINT('',(44.9,-18.65,7.5));
#930 = ORIENTED_EDGE('',*,*,#368,.T.);
#931 = ORIENTED_EDGE('',*,*,#345,.T.);
#932 = CYLINDRICAL_SURFACE('',#933,3.);
#933 = AXIS2_PLACEMENT_3D('',#934,#935,#936);
#934 = CARTESIAN_POINT('',(41.9,-18.65,3.));
#935 = DIRECTION('',(0.,0.,1.));
#936 = DIRECTION('',(1.,0.,0.));
#937 = ADVANCED_FACE('',(#938),#956,.F.);
#938 = FACE_BOUND('',#939,.F.);
#939 = EDGE_LOOP('',(#940,#948,#949,#950));
#940 = ORIENTED_EDGE('',*,*,#941,.T.);
#941 = EDGE_CURVE('',#942,#329,#944,.T.);
#942 = VERTEX_POINT('',#943);
#943 = CARTESIAN_POINT('',(44.9,18.65,7.5));
#944 = LINE('',#945,#946);
#945 = CARTESIAN_POINT('',(44.9,18.65,3.));
#946 = VECTOR('',#947,1.);
#947 = DIRECTION('',(0.,0.,1.));
#948 = ORIENTED_EDGE('',*,*,#337,.F.);
#949 = ORIENTED_EDGE('',*,*,#911,.F.);
#950 = ORIENTED_EDGE('',*,*,#951,.T.);
#951 = EDGE_CURVE('',#912,#942,#952,.T.);
#952 = LINE('',#953,#954);
#953 = CARTESIAN_POINT('',(44.9,-18.65,7.5));
#954 = VECTOR('',#955,1.);
#955 = DIRECTION('',(0.,1.,0.));
#956 = PLANE('',#957);
#957 = AXIS2_PLACEMENT_3D('',#958,#959,#960);
#958 = CARTESIAN_POINT('',(44.9,-21.65,3.));
#959 = DIRECTION('',(1.,0.,0.));
#960 = DIRECTION('',(0.,0.,1.));
#961 = ADVANCED_FACE('',(#962),#986,.F.);
#962 = FACE_BOUND('',#963,.F.);
#963 = EDGE_LOOP('',(#964,#965,#979,#985));
#964 = ORIENTED_EDGE('',*,*,#941,.F.);
#965 = ORIENTED_EDGE('',*,*,#966,.T.);
#966 = EDGE_CURVE('',#942,#967,#969,.T.);
#967 = VERTEX_POINT('',#968);
#968 = CARTESIAN_POINT('',(41.9,21.65,7.5));
#969 = B_SPLINE_CURVE_WITH_KNOTS('',8,(#970,#971,#972,#973,#974,#975,
    #976,#977,#978),.UNSPECIFIED.,.F.,.F.,(9,9),(0.,1.),
  .PIECEWISE_BEZIER_KNOTS.);
#970 = CARTESIAN_POINT('',(44.9,18.65,7.5));
#971 = CARTESIAN_POINT('',(44.9,19.23904860162,7.5));
#972 = CARTESIAN_POINT('',(44.767817645486,19.828097482553,7.5));
#973 = CARTESIAN_POINT('',(44.503454154392,20.382539633576,7.5));
#974 = CARTESIAN_POINT('',(44.117776334955,20.867776334946,7.5));
#975 = CARTESIAN_POINT('',(43.632539633564,21.253454154397,7.5));
#976 = CARTESIAN_POINT('',(43.07809748256,21.517817645485,7.5));
#977 = CARTESIAN_POINT('',(42.489048601616,21.65,7.5));
#978 = CARTESIAN_POINT('',(41.9,21.65,7.5));
#979 = ORIENTED_EDGE('',*,*,#980,.T.);
#980 = EDGE_CURVE('',#967,#321,#981,.T.);
#981 = LINE('',#982,#983);
#982 = CARTESIAN_POINT('',(41.9,21.65,3.));
#983 = VECTOR('',#984,1.);
#984 = DIRECTION('',(0.,0.,1.));
#985 = ORIENTED_EDGE('',*,*,#328,.F.);
#986 = CYLINDRICAL_SURFACE('',#987,3.);
#987 = AXIS2_PLACEMENT_3D('',#988,#989,#990);
#988 = CARTESIAN_POINT('',(41.9,18.65,3.));
#989 = DIRECTION('',(0.,0.,1.));
#990 = DIRECTION('',(1.,0.,0.));
#991 = ADVANCED_FACE('',(#992,#1003,#1037,#1071),#1105,.F.);
#992 = FACE_BOUND('',#993,.F.);
#993 = EDGE_LOOP('',(#994,#995,#1001,#1002));
#994 = ORIENTED_EDGE('',*,*,#980,.F.);
#995 = ORIENTED_EDGE('',*,*,#996,.T.);
#996 = EDGE_CURVE('',#967,#546,#997,.T.);
#997 = LINE('',#998,#999);
#998 = CARTESIAN_POINT('',(41.9,21.65,7.5));
#999 = VECTOR('',#1000,1.);
#1000 = DIRECTION('',(-1.,0.,0.));
#1001 = ORIENTED_EDGE('',*,*,#559,.T.);
#1002 = ORIENTED_EDGE('',*,*,#320,.F.);
#1003 = FACE_BOUND('',#1004,.F.);
#1004 = EDGE_LOOP('',(#1005,#1015,#1023,#1031));
#1005 = ORIENTED_EDGE('',*,*,#1006,.F.);
#1006 = EDGE_CURVE('',#1007,#1009,#1011,.T.);
#1007 = VERTEX_POINT('',#1008);
#1008 = CARTESIAN_POINT('',(-28.35,21.65,24.5));
#1009 = VERTEX_POINT('',#1010);
#1010 = CARTESIAN_POINT('',(-21.75,21.65,24.5));
#1011 = LINE('',#1012,#1013);
#1012 = CARTESIAN_POINT('',(-36.625,21.65,24.5));
#1013 = VECTOR('',#1014,1.);
#1014 = DIRECTION('',(1.,0.,0.));
#1015 = ORIENTED_EDGE('',*,*,#1016,.T.);
#1016 = EDGE_CURVE('',#1007,#1017,#1019,.T.);
#1017 = VERTEX_POINT('',#1018);
#1018 = CARTESIAN_POINT('',(-28.35,21.65,21.));
#1019 = LINE('',#1020,#1021);
#1020 = CARTESIAN_POINT('',(-28.35,21.65,12.));
#1021 = VECTOR('',#1022,1.);
#1022 = DIRECTION('',(0.,0.,-1.));
#1023 = ORIENTED_EDGE('',*,*,#1024,.T.);
#1024 = EDGE_CURVE('',#1017,#1025,#1027,.T.);
#1025 = VERTEX_POINT('',#1026);
#1026 = CARTESIAN_POINT('',(-21.75,21.65,21.));
#1027 = LINE('',#1028,#1029);
#1028 = CARTESIAN_POINT('',(-36.625,21.65,21.));
#1029 = VECTOR('',#1030,1.);
#1030 = DIRECTION('',(1.,0.,0.));
#1031 = ORIENTED_EDGE('',*,*,#1032,.F.);
#1032 = EDGE_CURVE('',#1009,#1025,#1033,.T.);
#1033 = LINE('',#1034,#1035);
#1034 = CARTESIAN_POINT('',(-21.75,21.65,12.));
#1035 = VECTOR('',#1036,1.);
#1036 = DIRECTION('',(0.,0.,-1.));
#1037 = FACE_BOUND('',#1038,.F.);
#1038 = EDGE_LOOP('',(#1039,#1049,#1057,#1065));
#1039 = ORIENTED_EDGE('',*,*,#1040,.F.);
#1040 = EDGE_CURVE('',#1041,#1043,#1045,.T.);
#1041 = VERTEX_POINT('',#1042);
#1042 = CARTESIAN_POINT('',(-17.35,21.65,24.5));
#1043 = VERTEX_POINT('',#1044);
#1044 = CARTESIAN_POINT('',(-10.75,21.65,24.5));
#1045 = LINE('',#1046,#1047);
#1046 = CARTESIAN_POINT('',(-31.125,21.65,24.5));
#1047 = VECTOR('',#1048,1.);
#1048 = DIRECTION('',(1.,0.,0.));
#1049 = ORIENTED_EDGE('',*,*,#1050,.T.);
#1050 = EDGE_CURVE('',#1041,#1051,#1053,.T.);
#1051 = VERTEX_POINT('',#1052);
#1052 = CARTESIAN_POINT('',(-17.35,21.65,21.));
#1053 = LINE('',#1054,#1055);
#1054 = CARTESIAN_POINT('',(-17.35,21.65,12.));
#1055 = VECTOR('',#1056,1.);
#1056 = DIRECTION('',(0.,0.,-1.));
#1057 = ORIENTED_EDGE('',*,*,#1058,.T.);
#1058 = EDGE_CURVE('',#1051,#1059,#1061,.T.);
#1059 = VERTEX_POINT('',#1060);
#1060 = CARTESIAN_POINT('',(-10.75,21.65,21.));
#1061 = LINE('',#1062,#1063);
#1062 = CARTESIAN_POINT('',(-31.125,21.65,21.));
#1063 = VECTOR('',#1064,1.);
#1064 = DIRECTION('',(1.,0.,0.));
#1065 = ORIENTED_EDGE('',*,*,#1066,.F.);
#1066 = EDGE_CURVE('',#1043,#1059,#1067,.T.);
#1067 = LINE('',#1068,#1069);
#1068 = CARTESIAN_POINT('',(-10.75,21.65,12.));
#1069 = VECTOR('',#1070,1.);
#1070 = DIRECTION('',(0.,0.,-1.));
#1071 = FACE_BOUND('',#1072,.F.);
#1072 = EDGE_LOOP('',(#1073,#1083,#1091,#1099));
#1073 = ORIENTED_EDGE('',*,*,#1074,.F.);
#1074 = EDGE_CURVE('',#1075,#1077,#1079,.T.);
#1075 = VERTEX_POINT('',#1076);
#1076 = CARTESIAN_POINT('',(-6.35,21.65,24.5));
#1077 = VERTEX_POINT('',#1078);
#1078 = CARTESIAN_POINT('',(0.25,21.65,24.5));
#1079 = LINE('',#1080,#1081);
#1080 = CARTESIAN_POINT('',(-25.625,21.65,24.5));
#1081 = VECTOR('',#1082,1.);
#1082 = DIRECTION('',(1.,0.,0.));
#1083 = ORIENTED_EDGE('',*,*,#1084,.T.);
#1084 = EDGE_CURVE('',#1075,#1085,#1087,.T.);
#1085 = VERTEX_POINT('',#1086);
#1086 = CARTESIAN_POINT('',(-6.35,21.65,21.));
#1087 = LINE('',#1088,#1089);
#1088 = CARTESIAN_POINT('',(-6.35,21.65,12.));
#1089 = VECTOR('',#1090,1.);
#1090 = DIRECTION('',(0.,0.,-1.));
#1091 = ORIENTED_EDGE('',*,*,#1092,.T.);
#1092 = EDGE_CURVE('',#1085,#1093,#1095,.T.);
#1093 = VERTEX_POINT('',#1094);
#1094 = CARTESIAN_POINT('',(0.25,21.65,21.));
#1095 = LINE('',#1096,#1097);
#1096 = CARTESIAN_POINT('',(-25.625,21.65,21.));
#1097 = VECTOR('',#1098,1.);
#1098 = DIRECTION('',(1.,0.,0.));
#1099 = ORIENTED_EDGE('',*,*,#1100,.F.);
#1100 = EDGE_CURVE('',#1077,#1093,#1101,.T.);
#1101 = LINE('',#1102,#1103);
#1102 = CARTESIAN_POINT('',(0.25,21.65,12.));
#1103 = VECTOR('',#1104,1.);
#1104 = DIRECTION('',(0.,0.,-1.));
#1105 = PLANE('',#1106);
#1106 = AXIS2_PLACEMENT_3D('',#1107,#1108,#1109);
#1107 = CARTESIAN_POINT('',(-44.9,21.65,3.));
#1108 = DIRECTION('',(0.,1.,0.));
#1109 = DIRECTION('',(0.,0.,1.));
#1110 = ADVANCED_FACE('',(#1111),#1122,.F.);
#1111 = FACE_BOUND('',#1112,.F.);
#1112 = EDGE_LOOP('',(#1113,#1114,#1120,#1121));
#1113 = ORIENTED_EDGE('',*,*,#530,.F.);
#1114 = ORIENTED_EDGE('',*,*,#1115,.T.);
#1115 = EDGE_CURVE('',#514,#450,#1116,.T.);
#1116 = LINE('',#1117,#1118);
#1117 = CARTESIAN_POINT('',(-44.4,-7.25,5.));
#1118 = VECTOR('',#1119,1.);
#1119 = DIRECTION('',(0.,1.,0.));
#1120 = ORIENTED_EDGE('',*,*,#473,.T.);
#1121 = ORIENTED_EDGE('',*,*,#424,.T.);
#1122 = PLANE('',#1123);
#1123 = AXIS2_PLACEMENT_3D('',#1124,#1125,#1126);
#1124 = CARTESIAN_POINT('',(-44.4,-7.25,5.));
#1125 = DIRECTION('',(1.,0.,0.));
#1126 = DIRECTION('',(0.,0.,1.));
#1127 = ADVANCED_FACE('',(#1128,#1146,#1157,#1168,#1179),#1190,.T.);
#1128 = FACE_BOUND('',#1129,.T.);
#1129 = EDGE_LOOP('',(#1130,#1131,#1139,#1145));
#1130 = ORIENTED_EDGE('',*,*,#575,.T.);
#1131 = ORIENTED_EDGE('',*,*,#1132,.T.);
#1132 = EDGE_CURVE('',#576,#1133,#1135,.T.);
#1133 = VERTEX_POINT('',#1134);
#1134 = CARTESIAN_POINT('',(41.4,18.15,4.));
#1135 = LINE('',#1136,#1137);
#1136 = CARTESIAN_POINT('',(41.4,-18.65,4.));
#1137 = VECTOR('',#1138,1.);
#1138 = DIRECTION('',(0.,1.,0.));
#1139 = ORIENTED_EDGE('',*,*,#1140,.T.);
#1140 = EDGE_CURVE('',#1133,#394,#1141,.T.);
#1141 = LINE('',#1142,#1143);
#1142 = CARTESIAN_POINT('',(41.9,18.15,4.));
#1143 = VECTOR('',#1144,1.);
#1144 = DIRECTION('',(-1.,0.,0.));
#1145 = ORIENTED_EDGE('',*,*,#407,.T.);
#1146 = FACE_BOUND('',#1147,.T.);
#1147 = EDGE_LOOP('',(#1148));
#1148 = ORIENTED_EDGE('',*,*,#1149,.F.);
#1149 = EDGE_CURVE('',#1150,#1150,#1152,.T.);
#1150 = VERTEX_POINT('',#1151);
#1151 = CARTESIAN_POINT('',(-31.55,-14.85,4.));
#1152 = CIRCLE('',#1153,1.5);
#1153 = AXIS2_PLACEMENT_3D('',#1154,#1155,#1156);
#1154 = CARTESIAN_POINT('',(-33.05,-14.85,4.));
#1155 = DIRECTION('',(0.,0.,1.));
#1156 = DIRECTION('',(1.,0.,0.));
#1157 = FACE_BOUND('',#1158,.T.);
#1158 = EDGE_LOOP('',(#1159));
#1159 = ORIENTED_EDGE('',*,*,#1160,.F.);
#1160 = EDGE_CURVE('',#1161,#1161,#1163,.T.);
#1161 = VERTEX_POINT('',#1162);
#1162 = CARTESIAN_POINT('',(40.05,-14.85,4.));
#1163 = CIRCLE('',#1164,1.5);
#1164 = AXIS2_PLACEMENT_3D('',#1165,#1166,#1167);
#1165 = CARTESIAN_POINT('',(38.55,-14.85,4.));
#1166 = DIRECTION('',(0.,0.,1.));
#1167 = DIRECTION('',(1.,0.,0.));
#1168 = FACE_BOUND('',#1169,.T.);
#1169 = EDGE_LOOP('',(#1170));
#1170 = ORIENTED_EDGE('',*,*,#1171,.F.);
#1171 = EDGE_CURVE('',#1172,#1172,#1174,.T.);
#1172 = VERTEX_POINT('',#1173);
#1173 = CARTESIAN_POINT('',(-31.55,14.85,4.));
#1174 = CIRCLE('',#1175,1.5);
#1175 = AXIS2_PLACEMENT_3D('',#1176,#1177,#1178);
#1176 = CARTESIAN_POINT('',(-33.05,14.85,4.));
#1177 = DIRECTION('',(0.,0.,1.));
#1178 = DIRECTION('',(1.,0.,0.));
#1179 = FACE_BOUND('',#1180,.T.);
#1180 = EDGE_LOOP('',(#1181));
#1181 = ORIENTED_EDGE('',*,*,#1182,.F.);
#1182 = EDGE_CURVE('',#1183,#1183,#1185,.T.);
#1183 = VERTEX_POINT('',#1184);
#1184 = CARTESIAN_POINT('',(40.05,14.85,4.));
#1185 = CIRCLE('',#1186,1.5);
#1186 = AXIS2_PLACEMENT_3D('',#1187,#1188,#1189);
#1187 = CARTESIAN_POINT('',(38.55,14.85,4.));
#1188 = DIRECTION('',(0.,0.,1.));
#1189 = DIRECTION('',(1.,0.,0.));
#1190 = PLANE('',#1191);
#1191 = AXIS2_PLACEMENT_3D('',#1192,#1193,#1194);
#1192 = CARTESIAN_POINT('',(-47.4,-24.15,4.));
#1193 = DIRECTION('',(0.,0.,1.));
#1194 = DIRECTION('',(1.,0.,0.));
#1195 = ADVANCED_FACE('',(#1196),#1210,.T.);
#1196 = FACE_BOUND('',#1197,.T.);
#1197 = EDGE_LOOP('',(#1198,#1208,#1209));
#1198 = ORIENTED_EDGE('',*,*,#1199,.F.);
#1199 = EDGE_CURVE('',#546,#394,#1200,.T.);
#1200 = B_SPLINE_CURVE_WITH_KNOTS('',6,(#1201,#1202,#1203,#1204,#1205,
    #1206,#1207),.UNSPECIFIED.,.F.,.F.,(7,7),(0.,1.),
  .PIECEWISE_BEZIER_KNOTS.);
#1201 = CARTESIAN_POINT('',(-41.9,21.65,7.5));
#1202 = CARTESIAN_POINT('',(-41.81666666666,21.65,6.583702142703));
#1203 = CARTESIAN_POINT('',(-41.73333333333,21.362203098929,
    5.667482247532));
#1204 = CARTESIAN_POINT('',(-41.65,20.786165523741,4.863834476259));
#1205 = CARTESIAN_POINT('',(-41.56666666666,19.982517752468,
    4.287796901071));
#1206 = CARTESIAN_POINT('',(-41.48333333333,19.066297857297,4.));
#1207 = CARTESIAN_POINT('',(-41.4,18.15,4.));
#1208 = ORIENTED_EDGE('',*,*,#545,.T.);
#1209 = ORIENTED_EDGE('',*,*,#393,.T.);
#1210 = B_SPLINE_SURFACE_WITH_KNOTS('',8,8,(
    (#1211,#1212,#1213,#1214,#1215,#1216,#1217,#1218,#1219)
    ,(#1220,#1221,#1222,#1223,#1224,#1225,#1226,#1227,#1228)
    ,(#1229,#1230,#1231,#1232,#1233,#1234,#1235,#1236,#1237)
    ,(#1238,#1239,#1240,#1241,#1242,#1243,#1244,#1245,#1246)
    ,(#1247,#1248,#1249,#1250,#1251,#1252,#1253,#1254,#1255)
    ,(#1256,#1257,#1258,#1259,#1260,#1261,#1262,#1263,#1264)
    ,(#1265,#1266,#1267,#1268,#1269,#1270,#1271,#1272,#1273)
    ,(#1274,#1275,#1276,#1277,#1278,#1279,#1280,#1281,#1282)
    ,(#1283,#1284,#1285,#1286,#1287,#1288,#1289,#1290,#1291
  )),.UNSPECIFIED.,.F.,.F.,.F.,(9,9),(9,9),(0.,1.),(0.,1.),
  .PIECEWISE_BEZIER_KNOTS.);
#1211 = CARTESIAN_POINT('',(-41.9,21.65,7.5));
#1212 = CARTESIAN_POINT('',(-41.8375,21.65,6.812776607027));
#1213 = CARTESIAN_POINT('',(-41.775,21.495787238636,6.125552997735));
#1214 = CARTESIAN_POINT('',(-41.7125,21.18736323055,5.478703679827));
#1215 = CARTESIAN_POINT('',(-41.64999999999,20.737405645229,
    4.912594354771));
#1216 = CARTESIAN_POINT('',(-41.5875,20.171296320173,4.46263676945));
#1217 = CARTESIAN_POINT('',(-41.525,19.524447002264,4.154212761364));
#1218 = CARTESIAN_POINT('',(-41.4625,18.837223392973,4.));
#1219 = CARTESIAN_POINT('',(-41.4,18.15,4.));
#1220 = CARTESIAN_POINT('',(-42.48904860162,21.65,7.5));
#1221 = CARTESIAN_POINT('',(-42.40760502641,21.656135922934,
    6.812776607027));
#1222 = CARTESIAN_POINT('',(-42.30688485604,21.504434208977,
    6.101073421834));
#1223 = CARTESIAN_POINT('',(-42.18688827983,21.177463430931,
    5.419937683772));
#1224 = CARTESIAN_POINT('',(-42.04920000646,20.684610140695,
    4.842557347244));
#1225 = CARTESIAN_POINT('',(-41.89699276563,20.097689498479,
    4.421138696692));
#1226 = CARTESIAN_POINT('',(-41.73469302568,19.46385625069,
    4.140102160457));
#1227 = CARTESIAN_POINT('',(-41.56734649932,18.806007968851,4.));
#1228 = CARTESIAN_POINT('',(-41.4,18.15,4.));
#1229 = CARTESIAN_POINT('',(-43.07809748255,21.517817645486,7.5));
#1230 = CARTESIAN_POINT('',(-43.00603273353,21.542079009034,
    6.812776607027));
#1231 = CARTESIAN_POINT('',(-42.9701230349,21.306739178409,
    6.083588010476));
#1232 = CARTESIAN_POINT('',(-42.8103800547,20.960683437855,
    5.377961972304));
#1233 = CARTESIAN_POINT('',(-42.58298887986,20.458200491134,
    4.792530913297));
#1234 = CARTESIAN_POINT('',(-42.31211115871,19.89078555864,
    4.391497216151));
#1235 = CARTESIAN_POINT('',(-42.01629555128,19.308256899306,
    4.130023159808));
#1236 = CARTESIAN_POINT('',(-41.75954286895,18.666405224363,4.));
#1237 = CARTESIAN_POINT('',(-41.4,18.15,4.));
#1238 = CARTESIAN_POINT('',(-43.63253963357,21.253454154392,7.5));
#1239 = CARTESIAN_POINT('',(-43.59688058226,21.284935370294,
    6.812776607027));
#1240 = CARTESIAN_POINT('',(-43.51684963521,21.090054653672,
    6.073096763661));
#1241 = CARTESIAN_POINT('',(-43.29598726942,20.767824635797,
    5.352776545423));
#1242 = CARTESIAN_POINT('',(-42.97193160644,20.292662373717,
    4.762515052929));
#1243 = CARTESIAN_POINT('',(-42.59562609353,19.757557389068,
    4.373712327826));
#1244 = CARTESIAN_POINT('',(-42.19878764691,19.213105819925,
    4.123975759419));
#1245 = CARTESIAN_POINT('',(-41.82425525417,18.633249014237,4.));
#1246 = CARTESIAN_POINT('',(-41.4,18.15,4.));
#1247 = CARTESIAN_POINT('',(-44.11777633494,20.867776334955,7.5));
#1248 = CARTESIAN_POINT('',(-44.12729929197,20.877299291986,
    6.812776607027));
#1249 = CARTESIAN_POINT('',(-43.99073526202,20.740735262028,
    6.069599681389));
#1250 = CARTESIAN_POINT('',(-43.712794335,20.462794335005,5.344381403129
    ));
#1251 = CARTESIAN_POINT('',(-43.30020867583,20.050208675838,
    4.752509766139));
#1252 = CARTESIAN_POINT('',(-42.830277588,19.580277588003,4.367784031718
    ));
#1253 = CARTESIAN_POINT('',(-42.34710209022,19.097102090226,
    4.12195995929));
#1254 = CARTESIAN_POINT('',(-41.85901149671,18.609011496717,4.));
#1255 = CARTESIAN_POINT('',(-41.4,18.15,4.));
#1256 = CARTESIAN_POINT('',(-44.50345415439,20.382539633564,7.5));
#1257 = CARTESIAN_POINT('',(-44.53493537029,20.346880582251,
    6.812776607027));
#1258 = CARTESIAN_POINT('',(-44.34005465367,20.266849635205,
    6.073096763661));
#1259 = CARTESIAN_POINT('',(-44.0178246358,20.045987269419,
    5.352776545423));
#1260 = CARTESIAN_POINT('',(-43.54266237371,19.721931606444,
    4.762515052929));
#1261 = CARTESIAN_POINT('',(-43.00755738907,19.345626093529,
    4.373712327826));
#1262 = CARTESIAN_POINT('',(-42.46310581992,18.948787646914,
    4.123975759419));
#1263 = CARTESIAN_POINT('',(-41.88324901423,18.574255254169,4.));
#1264 = CARTESIAN_POINT('',(-41.4,18.15,4.));
#1265 = CARTESIAN_POINT('',(-44.76781764548,19.82809748256,7.5));
#1266 = CARTESIAN_POINT('',(-44.79207900903,19.756032733546,
    6.812776607027));
#1267 = CARTESIAN_POINT('',(-44.5567391784,19.720123034913,
    6.083588010476));
#1268 = CARTESIAN_POINT('',(-44.21068343785,19.56038005471,
    5.377961972304));
#1269 = CARTESIAN_POINT('',(-43.70820049113,19.332988879867,
    4.792530913297));
#1270 = CARTESIAN_POINT('',(-43.14078555864,19.062111158719,
    4.391497216151));
#1271 = CARTESIAN_POINT('',(-42.5582568993,18.766295551285,
    4.130023159808));
#1272 = CARTESIAN_POINT('',(-41.91640522436,18.509542868957,4.));
#1273 = CARTESIAN_POINT('',(-41.4,18.15,4.));
#1274 = CARTESIAN_POINT('',(-44.9,19.239048601616,7.5));
#1275 = CARTESIAN_POINT('',(-44.90613592293,19.157605026414,
    6.812776607027));
#1276 = CARTESIAN_POINT('',(-44.75443420897,19.056884856041,
    6.101073421834));
#1277 = CARTESIAN_POINT('',(-44.42746343093,18.936888279829,
    5.419937683772));
#1278 = CARTESIAN_POINT('',(-43.93461014069,18.799200006462,
    4.842557347244));
#1279 = CARTESIAN_POINT('',(-43.34768949847,18.646992765628,
    4.421138696692));
#1280 = CARTESIAN_POINT('',(-42.71385625069,18.484693025687,
    4.140102160457));
#1281 = CARTESIAN_POINT('',(-42.05600796885,18.317346499324,4.));
#1282 = CARTESIAN_POINT('',(-41.4,18.15,4.));
#1283 = CARTESIAN_POINT('',(-44.9,18.65,7.5));
#1284 = CARTESIAN_POINT('',(-44.9,18.5875,6.812776607027));
#1285 = CARTESIAN_POINT('',(-44.74578723863,18.525,6.125552997735));
#1286 = CARTESIAN_POINT('',(-44.43736323055,18.4625,5.478703679827));
#1287 = CARTESIAN_POINT('',(-43.98740564522,18.4,4.91259435477));
#1288 = CARTESIAN_POINT('',(-43.42129632017,18.3375,4.46263676945));
#1289 = CARTESIAN_POINT('',(-42.77444700226,18.275,4.154212761364));
#1290 = CARTESIAN_POINT('',(-42.08722339297,18.2125,4.));
#1291 = CARTESIAN_POINT('',(-41.4,18.15,4.));
#1292 = ADVANCED_FACE('',(#1293),#1299,.T.);
#1293 = FACE_BOUND('',#1294,.T.);
#1294 = EDGE_LOOP('',(#1295,#1296,#1297,#1298));
#1295 = ORIENTED_EDGE('',*,*,#447,.F.);
#1296 = ORIENTED_EDGE('',*,*,#629,.F.);
#1297 = ORIENTED_EDGE('',*,*,#511,.T.);
#1298 = ORIENTED_EDGE('',*,*,#1115,.T.);
#1299 = PLANE('',#1300);
#1300 = AXIS2_PLACEMENT_3D('',#1301,#1302,#1303);
#1301 = CARTESIAN_POINT('',(-47.9,-7.25,5.));
#1302 = DIRECTION('',(0.,0.,1.));
#1303 = DIRECTION('',(1.,0.,0.));
#1304 = ADVANCED_FACE('',(#1305),#1321,.T.);
#1305 = FACE_BOUND('',#1306,.T.);
#1306 = EDGE_LOOP('',(#1307,#1308,#1309));
#1307 = ORIENTED_EDGE('',*,*,#583,.F.);
#1308 = ORIENTED_EDGE('',*,*,#919,.T.);
#1309 = ORIENTED_EDGE('',*,*,#1310,.T.);
#1310 = EDGE_CURVE('',#912,#576,#1311,.T.);
#1311 = B_SPLINE_CURVE_WITH_KNOTS('',8,(#1312,#1313,#1314,#1315,#1316,
    #1317,#1318,#1319,#1320),.UNSPECIFIED.,.F.,.F.,(9,9),(0.,1.),
  .PIECEWISE_BEZIER_KNOTS.);
#1312 = CARTESIAN_POINT('',(44.9,-18.65,7.5));
#1313 = CARTESIAN_POINT('',(44.9,-18.5875,6.812776607027));
#1314 = CARTESIAN_POINT('',(44.745787238635,-18.525,6.125552997735));
#1315 = CARTESIAN_POINT('',(44.437363230551,-18.4625,5.478703679827));
#1316 = CARTESIAN_POINT('',(43.987405645228,-18.4,4.91259435477));
#1317 = CARTESIAN_POINT('',(43.421296320174,-18.3375,4.46263676945));
#1318 = CARTESIAN_POINT('',(42.774447002264,-18.275,4.154212761364));
#1319 = CARTESIAN_POINT('',(42.087223392973,-18.2125,4.));
#1320 = CARTESIAN_POINT('',(41.4,-18.15,4.));
#1321 = B_SPLINE_SURFACE_WITH_KNOTS('',8,8,(
    (#1322,#1323,#1324,#1325,#1326,#1327,#1328,#1329,#1330)
    ,(#1331,#1332,#1333,#1334,#1335,#1336,#1337,#1338,#1339)
    ,(#1340,#1341,#1342,#1343,#1344,#1345,#1346,#1347,#1348)
    ,(#1349,#1350,#1351,#1352,#1353,#1354,#1355,#1356,#1357)
    ,(#1358,#1359,#1360,#1361,#1362,#1363,#1364,#1365,#1366)
    ,(#1367,#1368,#1369,#1370,#1371,#1372,#1373,#1374,#1375)
    ,(#1376,#1377,#1378,#1379,#1380,#1381,#1382,#1383,#1384)
    ,(#1385,#1386,#1387,#1388,#1389,#1390,#1391,#1392,#1393)
    ,(#1394,#1395,#1396,#1397,#1398,#1399,#1400,#1401,#1402
  )),.UNSPECIFIED.,.F.,.F.,.F.,(9,9),(9,9),(0.,1.),(0.,1.),
  .PIECEWISE_BEZIER_KNOTS.);
#1322 = CARTESIAN_POINT('',(41.9,-21.65,7.5));
#1323 = CARTESIAN_POINT('',(41.8375,-21.65,6.812776607027));
#1324 = CARTESIAN_POINT('',(41.775,-21.49578723863,6.125552997735));
#1325 = CARTESIAN_POINT('',(41.7125,-21.18736323055,5.478703679827));
#1326 = CARTESIAN_POINT('',(41.649999999999,-20.73740564522,
    4.912594354771));
#1327 = CARTESIAN_POINT('',(41.587500000001,-20.17129632017,
    4.46263676945));
#1328 = CARTESIAN_POINT('',(41.525,-19.52444700226,4.154212761364));
#1329 = CARTESIAN_POINT('',(41.4625,-18.83722339297,4.));
#1330 = CARTESIAN_POINT('',(41.4,-18.15,4.));
#1331 = CARTESIAN_POINT('',(42.48904860162,-21.65,7.5));
#1332 = CARTESIAN_POINT('',(42.407605026418,-21.65613592293,
    6.812776607027));
#1333 = CARTESIAN_POINT('',(42.306884856044,-21.50443420897,
    6.101073421834));
#1334 = CARTESIAN_POINT('',(42.186888279832,-21.17746343093,
    5.419937683772));
#1335 = CARTESIAN_POINT('',(42.049200006463,-20.68461014069,
    4.842557347244));
#1336 = CARTESIAN_POINT('',(41.89699276563,-20.09768949847,
    4.421138696692));
#1337 = CARTESIAN_POINT('',(41.734693025688,-19.46385625069,
    4.140102160457));
#1338 = CARTESIAN_POINT('',(41.567346499324,-18.80600796885,4.));
#1339 = CARTESIAN_POINT('',(41.4,-18.15,4.));
#1340 = CARTESIAN_POINT('',(43.078097482552,-21.51781764548,7.5));
#1341 = CARTESIAN_POINT('',(43.006032733538,-21.54207900903,
    6.812776607027));
#1342 = CARTESIAN_POINT('',(42.970123034909,-21.3067391784,
    6.083588010476));
#1343 = CARTESIAN_POINT('',(42.810380054708,-20.96068343785,
    5.377961972304));
#1344 = CARTESIAN_POINT('',(42.582988879864,-20.45820049113,
    4.792530913297));
#1345 = CARTESIAN_POINT('',(42.312111158717,-19.89078555864,
    4.391497216151));
#1346 = CARTESIAN_POINT('',(42.016295551283,-19.3082568993,
    4.130023159808));
#1347 = CARTESIAN_POINT('',(41.759542868957,-18.66640522436,4.));
#1348 = CARTESIAN_POINT('',(41.4,-18.15,4.));
#1349 = CARTESIAN_POINT('',(43.632539633578,-21.2534541544,7.5));
#1350 = CARTESIAN_POINT('',(43.596880582263,-21.2849353703,
    6.812776607027));
#1351 = CARTESIAN_POINT('',(43.516849635213,-21.09005465367,
    6.073096763661));
#1352 = CARTESIAN_POINT('',(43.295987269426,-20.7678246358,
    5.352776545423));
#1353 = CARTESIAN_POINT('',(42.971931606449,-20.29266237372,
    4.762515052929));
#1354 = CARTESIAN_POINT('',(42.595626093534,-19.75755738907,
    4.373712327826));
#1355 = CARTESIAN_POINT('',(42.198787646917,-19.21310581992,
    4.123975759419));
#1356 = CARTESIAN_POINT('',(41.82425525417,-18.63324901423,4.));
#1357 = CARTESIAN_POINT('',(41.4,-18.15,4.));
#1358 = CARTESIAN_POINT('',(44.117776334945,-20.86777633494,7.5));
#1359 = CARTESIAN_POINT('',(44.127299291976,-20.87729929197,
    6.812776607027));
#1360 = CARTESIAN_POINT('',(43.990735262022,-20.74073526202,
    6.06959968139));
#1361 = CARTESIAN_POINT('',(43.712794335002,-20.462794335,5.344381403129
    ));
#1362 = CARTESIAN_POINT('',(43.300208675835,-20.05020867583,
    4.752509766139));
#1363 = CARTESIAN_POINT('',(42.830277588001,-19.580277588,4.367784031718
    ));
#1364 = CARTESIAN_POINT('',(42.347102090224,-19.09710209022,
    4.12195995929));
#1365 = CARTESIAN_POINT('',(41.859011496718,-18.60901149671,4.));
#1366 = CARTESIAN_POINT('',(41.4,-18.15,4.));
#1367 = CARTESIAN_POINT('',(44.503454154398,-20.38253963358,7.5));
#1368 = CARTESIAN_POINT('',(44.534935370299,-20.34688058226,
    6.812776607027));
#1369 = CARTESIAN_POINT('',(44.340054653676,-20.26684963521,
    6.073096763661));
#1370 = CARTESIAN_POINT('',(44.0178246358,-20.04598726942,5.352776545423
    ));
#1371 = CARTESIAN_POINT('',(43.542662373719,-19.72193160645,
    4.762515052929));
#1372 = CARTESIAN_POINT('',(43.00755738907,-19.34562609353,
    4.373712327826));
#1373 = CARTESIAN_POINT('',(42.463105819926,-18.94878764691,
    4.123975759419));
#1374 = CARTESIAN_POINT('',(41.883249014237,-18.57425525417,4.));
#1375 = CARTESIAN_POINT('',(41.4,-18.15,4.));
#1376 = CARTESIAN_POINT('',(44.767817645485,-19.82809748254,7.5));
#1377 = CARTESIAN_POINT('',(44.792079009033,-19.75603273353,
    6.812776607027));
#1378 = CARTESIAN_POINT('',(44.556739178408,-19.7201230349,
    6.083588010476));
#1379 = CARTESIAN_POINT('',(44.210683437855,-19.5603800547,
    5.377961972304));
#1380 = CARTESIAN_POINT('',(43.708200491133,-19.33298887986,
    4.792530913297));
#1381 = CARTESIAN_POINT('',(43.14078555864,-19.06211115871,
    4.391497216151));
#1382 = CARTESIAN_POINT('',(42.558256899306,-18.76629555128,
    4.130023159808));
#1383 = CARTESIAN_POINT('',(41.916405224363,-18.50954286895,4.));
#1384 = CARTESIAN_POINT('',(41.4,-18.15,4.));
#1385 = CARTESIAN_POINT('',(44.9,-19.23904860162,7.5));
#1386 = CARTESIAN_POINT('',(44.906135922934,-19.15760502641,
    6.812776607027));
#1387 = CARTESIAN_POINT('',(44.754434208977,-19.05688485604,
    6.101073421834));
#1388 = CARTESIAN_POINT('',(44.427463430931,-18.93688827983,
    5.419937683772));
#1389 = CARTESIAN_POINT('',(43.934610140694,-18.79920000646,
    4.842557347244));
#1390 = CARTESIAN_POINT('',(43.347689498479,-18.64699276563,
    4.421138696692));
#1391 = CARTESIAN_POINT('',(42.71385625069,-18.48469302568,
    4.140102160457));
#1392 = CARTESIAN_POINT('',(42.056007968851,-18.31734649932,4.));
#1393 = CARTESIAN_POINT('',(41.4,-18.15,4.));
#1394 = CARTESIAN_POINT('',(44.9,-18.65,7.5));
#1395 = CARTESIAN_POINT('',(44.9,-18.5875,6.812776607027));
#1396 = CARTESIAN_POINT('',(44.745787238635,-18.525,6.125552997735));
#1397 = CARTESIAN_POINT('',(44.437363230551,-18.4625,5.478703679827));
#1398 = CARTESIAN_POINT('',(43.987405645228,-18.4,4.91259435477));
#1399 = CARTESIAN_POINT('',(43.421296320174,-18.3375,4.46263676945));
#1400 = CARTESIAN_POINT('',(42.774447002264,-18.275,4.154212761364));
#1401 = CARTESIAN_POINT('',(42.087223392973,-18.2125,4.));
#1402 = CARTESIAN_POINT('',(41.4,-18.15,4.));
#1403 = ADVANCED_FACE('',(#1404,#1414,#1425,#1436,#1447),#1458,.F.);
#1404 = FACE_BOUND('',#1405,.F.);
#1405 = EDGE_LOOP('',(#1406,#1407,#1408,#1409,#1410,#1411,#1412,#1413));
#1406 = ORIENTED_EDGE('',*,*,#619,.F.);
#1407 = ORIENTED_EDGE('',*,*,#646,.T.);
#1408 = ORIENTED_EDGE('',*,*,#694,.T.);
#1409 = ORIENTED_EDGE('',*,*,#852,.F.);
#1410 = ORIENTED_EDGE('',*,*,#894,.T.);
#1411 = ORIENTED_EDGE('',*,*,#878,.T.);
#1412 = ORIENTED_EDGE('',*,*,#718,.F.);
#1413 = ORIENTED_EDGE('',*,*,#670,.F.);
#1414 = FACE_BOUND('',#1415,.F.);
#1415 = EDGE_LOOP('',(#1416));
#1416 = ORIENTED_EDGE('',*,*,#1417,.F.);
#1417 = EDGE_CURVE('',#1418,#1418,#1420,.T.);
#1418 = VERTEX_POINT('',#1419);
#1419 = CARTESIAN_POINT('',(-30.425,-14.85,0.));
#1420 = CIRCLE('',#1421,2.625);
#1421 = AXIS2_PLACEMENT_3D('',#1422,#1423,#1424);
#1422 = CARTESIAN_POINT('',(-33.05,-14.85,0.));
#1423 = DIRECTION('',(0.,0.,1.));
#1424 = DIRECTION('',(1.,0.,0.));
#1425 = FACE_BOUND('',#1426,.F.);
#1426 = EDGE_LOOP('',(#1427));
#1427 = ORIENTED_EDGE('',*,*,#1428,.F.);
#1428 = EDGE_CURVE('',#1429,#1429,#1431,.T.);
#1429 = VERTEX_POINT('',#1430);
#1430 = CARTESIAN_POINT('',(41.175,-14.85,0.));
#1431 = CIRCLE('',#1432,2.625);
#1432 = AXIS2_PLACEMENT_3D('',#1433,#1434,#1435);
#1433 = CARTESIAN_POINT('',(38.55,-14.85,0.));
#1434 = DIRECTION('',(0.,0.,1.));
#1435 = DIRECTION('',(1.,0.,0.));
#1436 = FACE_BOUND('',#1437,.F.);
#1437 = EDGE_LOOP('',(#1438));
#1438 = ORIENTED_EDGE('',*,*,#1439,.F.);
#1439 = EDGE_CURVE('',#1440,#1440,#1442,.T.);
#1440 = VERTEX_POINT('',#1441);
#1441 = CARTESIAN_POINT('',(-30.425,14.85,0.));
#1442 = CIRCLE('',#1443,2.625);
#1443 = AXIS2_PLACEMENT_3D('',#1444,#1445,#1446);
#1444 = CARTESIAN_POINT('',(-33.05,14.85,0.));
#1445 = DIRECTION('',(0.,0.,1.));
#1446 = DIRECTION('',(1.,0.,0.));
#1447 = FACE_BOUND('',#1448,.F.);
#1448 = EDGE_LOOP('',(#1449));
#1449 = ORIENTED_EDGE('',*,*,#1450,.F.);
#1450 = EDGE_CURVE('',#1451,#1451,#1453,.T.);
#1451 = VERTEX_POINT('',#1452);
#1452 = CARTESIAN_POINT('',(41.175,14.85,0.));
#1453 = CIRCLE('',#1454,2.625);
#1454 = AXIS2_PLACEMENT_3D('',#1455,#1456,#1457);
#1455 = CARTESIAN_POINT('',(38.55,14.85,0.));
#1456 = DIRECTION('',(0.,0.,1.));
#1457 = DIRECTION('',(1.,0.,0.));
#1458 = PLANE('',#1459);
#1459 = AXIS2_PLACEMENT_3D('',#1460,#1461,#1462);
#1460 = CARTESIAN_POINT('',(-47.4,-24.15,0.));
#1461 = DIRECTION('',(0.,0.,1.));
#1462 = DIRECTION('',(1.,0.,0.));
#1463 = ADVANCED_FACE('',(#1464),#1480,.F.);
#1464 = FACE_BOUND('',#1465,.F.);
#1465 = EDGE_LOOP('',(#1466,#1472,#1473,#1479));
#1466 = ORIENTED_EDGE('',*,*,#1467,.F.);
#1467 = EDGE_CURVE('',#1007,#737,#1468,.T.);
#1468 = LINE('',#1469,#1470);
#1469 = CARTESIAN_POINT('',(-28.35,21.15,24.5));
#1470 = VECTOR('',#1471,1.);
#1471 = DIRECTION('',(0.,1.,0.));
#1472 = ORIENTED_EDGE('',*,*,#1006,.T.);
#1473 = ORIENTED_EDGE('',*,*,#1474,.T.);
#1474 = EDGE_CURVE('',#1009,#739,#1475,.T.);
#1475 = LINE('',#1476,#1477);
#1476 = CARTESIAN_POINT('',(-21.75,21.15,24.5));
#1477 = VECTOR('',#1478,1.);
#1478 = DIRECTION('',(0.,1.,0.));
#1479 = ORIENTED_EDGE('',*,*,#736,.F.);
#1480 = PLANE('',#1481);
#1481 = AXIS2_PLACEMENT_3D('',#1482,#1483,#1484);
#1482 = CARTESIAN_POINT('',(-28.35,21.15,24.5));
#1483 = DIRECTION('',(0.,0.,1.));
#1484 = DIRECTION('',(1.,0.,0.));
#1485 = ADVANCED_FACE('',(#1486),#1497,.F.);
#1486 = FACE_BOUND('',#1487,.F.);
#1487 = EDGE_LOOP('',(#1488,#1489,#1490,#1496));
#1488 = ORIENTED_EDGE('',*,*,#1474,.F.);
#1489 = ORIENTED_EDGE('',*,*,#1032,.T.);
#1490 = ORIENTED_EDGE('',*,*,#1491,.T.);
#1491 = EDGE_CURVE('',#1025,#755,#1492,.T.);
#1492 = LINE('',#1493,#1494);
#1493 = CARTESIAN_POINT('',(-21.75,21.15,21.));
#1494 = VECTOR('',#1495,1.);
#1495 = DIRECTION('',(0.,1.,0.));
#1496 = ORIENTED_EDGE('',*,*,#762,.F.);
#1497 = PLANE('',#1498);
#1498 = AXIS2_PLACEMENT_3D('',#1499,#1500,#1501);
#1499 = CARTESIAN_POINT('',(-21.75,21.15,21.));
#1500 = DIRECTION('',(1.,0.,0.));
#1501 = DIRECTION('',(0.,0.,1.));
#1502 = ADVANCED_FACE('',(#1503),#1514,.T.);
#1503 = FACE_BOUND('',#1504,.T.);
#1504 = EDGE_LOOP('',(#1505,#1511,#1512,#1513));
#1505 = ORIENTED_EDGE('',*,*,#1506,.F.);
#1506 = EDGE_CURVE('',#1017,#747,#1507,.T.);
#1507 = LINE('',#1508,#1509);
#1508 = CARTESIAN_POINT('',(-28.35,21.15,21.));
#1509 = VECTOR('',#1510,1.);
#1510 = DIRECTION('',(0.,1.,0.));
#1511 = ORIENTED_EDGE('',*,*,#1024,.T.);
#1512 = ORIENTED_EDGE('',*,*,#1491,.T.);
#1513 = ORIENTED_EDGE('',*,*,#754,.F.);
#1514 = PLANE('',#1515);
#1515 = AXIS2_PLACEMENT_3D('',#1516,#1517,#1518);
#1516 = CARTESIAN_POINT('',(-28.35,21.15,21.));
#1517 = DIRECTION('',(0.,0.,1.));
#1518 = DIRECTION('',(1.,0.,0.));
#1519 = ADVANCED_FACE('',(#1520),#1526,.T.);
#1520 = FACE_BOUND('',#1521,.T.);
#1521 = EDGE_LOOP('',(#1522,#1523,#1524,#1525));
#1522 = ORIENTED_EDGE('',*,*,#1467,.F.);
#1523 = ORIENTED_EDGE('',*,*,#1016,.T.);
#1524 = ORIENTED_EDGE('',*,*,#1506,.T.);
#1525 = ORIENTED_EDGE('',*,*,#746,.F.);
#1526 = PLANE('',#1527);
#1527 = AXIS2_PLACEMENT_3D('',#1528,#1529,#1530);
#1528 = CARTESIAN_POINT('',(-28.35,21.15,21.));
#1529 = DIRECTION('',(1.,0.,0.));
#1530 = DIRECTION('',(0.,0.,1.));
#1531 = ADVANCED_FACE('',(#1532),#1548,.F.);
#1532 = FACE_BOUND('',#1533,.F.);
#1533 = EDGE_LOOP('',(#1534,#1540,#1541,#1547));
#1534 = ORIENTED_EDGE('',*,*,#1535,.F.);
#1535 = EDGE_CURVE('',#1041,#771,#1536,.T.);
#1536 = LINE('',#1537,#1538);
#1537 = CARTESIAN_POINT('',(-17.35,21.15,24.5));
#1538 = VECTOR('',#1539,1.);
#1539 = DIRECTION('',(0.,1.,0.));
#1540 = ORIENTED_EDGE('',*,*,#1040,.T.);
#1541 = ORIENTED_EDGE('',*,*,#1542,.T.);
#1542 = EDGE_CURVE('',#1043,#773,#1543,.T.);
#1543 = LINE('',#1544,#1545);
#1544 = CARTESIAN_POINT('',(-10.75,21.15,24.5));
#1545 = VECTOR('',#1546,1.);
#1546 = DIRECTION('',(0.,1.,0.));
#1547 = ORIENTED_EDGE('',*,*,#770,.F.);
#1548 = PLANE('',#1549);
#1549 = AXIS2_PLACEMENT_3D('',#1550,#1551,#1552);
#1550 = CARTESIAN_POINT('',(-17.35,21.15,24.5));
#1551 = DIRECTION('',(0.,0.,1.));
#1552 = DIRECTION('',(1.,0.,0.));
#1553 = ADVANCED_FACE('',(#1554),#1565,.F.);
#1554 = FACE_BOUND('',#1555,.F.);
#1555 = EDGE_LOOP('',(#1556,#1557,#1558,#1564));
#1556 = ORIENTED_EDGE('',*,*,#1542,.F.);
#1557 = ORIENTED_EDGE('',*,*,#1066,.T.);
#1558 = ORIENTED_EDGE('',*,*,#1559,.T.);
#1559 = EDGE_CURVE('',#1059,#789,#1560,.T.);
#1560 = LINE('',#1561,#1562);
#1561 = CARTESIAN_POINT('',(-10.75,21.15,21.));
#1562 = VECTOR('',#1563,1.);
#1563 = DIRECTION('',(0.,1.,0.));
#1564 = ORIENTED_EDGE('',*,*,#796,.F.);
#1565 = PLANE('',#1566);
#1566 = AXIS2_PLACEMENT_3D('',#1567,#1568,#1569);
#1567 = CARTESIAN_POINT('',(-10.75,21.15,21.));
#1568 = DIRECTION('',(1.,0.,0.));
#1569 = DIRECTION('',(0.,0.,1.));
#1570 = ADVANCED_FACE('',(#1571),#1582,.T.);
#1571 = FACE_BOUND('',#1572,.T.);
#1572 = EDGE_LOOP('',(#1573,#1579,#1580,#1581));
#1573 = ORIENTED_EDGE('',*,*,#1574,.F.);
#1574 = EDGE_CURVE('',#1051,#781,#1575,.T.);
#1575 = LINE('',#1576,#1577);
#1576 = CARTESIAN_POINT('',(-17.35,21.15,21.));
#1577 = VECTOR('',#1578,1.);
#1578 = DIRECTION('',(0.,1.,0.));
#1579 = ORIENTED_EDGE('',*,*,#1058,.T.);
#1580 = ORIENTED_EDGE('',*,*,#1559,.T.);
#1581 = ORIENTED_EDGE('',*,*,#788,.F.);
#1582 = PLANE('',#1583);
#1583 = AXIS2_PLACEMENT_3D('',#1584,#1585,#1586);
#1584 = CARTESIAN_POINT('',(-17.35,21.15,21.));
#1585 = DIRECTION('',(0.,0.,1.));
#1586 = DIRECTION('',(1.,0.,0.));
#1587 = ADVANCED_FACE('',(#1588),#1594,.T.);
#1588 = FACE_BOUND('',#1589,.T.);
#1589 = EDGE_LOOP('',(#1590,#1591,#1592,#1593));
#1590 = ORIENTED_EDGE('',*,*,#1535,.F.);
#1591 = ORIENTED_EDGE('',*,*,#1050,.T.);
#1592 = ORIENTED_EDGE('',*,*,#1574,.T.);
#1593 = ORIENTED_EDGE('',*,*,#780,.F.);
#1594 = PLANE('',#1595);
#1595 = AXIS2_PLACEMENT_3D('',#1596,#1597,#1598);
#1596 = CARTESIAN_POINT('',(-17.35,21.15,21.));
#1597 = DIRECTION('',(1.,0.,0.));
#1598 = DIRECTION('',(0.,0.,1.));
#1599 = ADVANCED_FACE('',(#1600),#1616,.F.);
#1600 = FACE_BOUND('',#1601,.F.);
#1601 = EDGE_LOOP('',(#1602,#1608,#1609,#1615));
#1602 = ORIENTED_EDGE('',*,*,#1603,.F.);
#1603 = EDGE_CURVE('',#1075,#805,#1604,.T.);
#1604 = LINE('',#1605,#1606);
#1605 = CARTESIAN_POINT('',(-6.35,21.15,24.5));
#1606 = VECTOR('',#1607,1.);
#1607 = DIRECTION('',(0.,1.,0.));
#1608 = ORIENTED_EDGE('',*,*,#1074,.T.);
#1609 = ORIENTED_EDGE('',*,*,#1610,.T.);
#1610 = EDGE_CURVE('',#1077,#807,#1611,.T.);
#1611 = LINE('',#1612,#1613);
#1612 = CARTESIAN_POINT('',(0.25,21.15,24.5));
#1613 = VECTOR('',#1614,1.);
#1614 = DIRECTION('',(0.,1.,0.));
#1615 = ORIENTED_EDGE('',*,*,#804,.F.);
#1616 = PLANE('',#1617);
#1617 = AXIS2_PLACEMENT_3D('',#1618,#1619,#1620);
#1618 = CARTESIAN_POINT('',(-6.35,21.15,24.5));
#1619 = DIRECTION('',(0.,0.,1.));
#1620 = DIRECTION('',(1.,0.,0.));
#1621 = ADVANCED_FACE('',(#1622),#1633,.F.);
#1622 = FACE_BOUND('',#1623,.F.);
#1623 = EDGE_LOOP('',(#1624,#1625,#1626,#1632));
#1624 = ORIENTED_EDGE('',*,*,#1610,.F.);
#1625 = ORIENTED_EDGE('',*,*,#1100,.T.);
#1626 = ORIENTED_EDGE('',*,*,#1627,.T.);
#1627 = EDGE_CURVE('',#1093,#823,#1628,.T.);
#1628 = LINE('',#1629,#1630);
#1629 = CARTESIAN_POINT('',(0.25,21.15,21.));
#1630 = VECTOR('',#1631,1.);
#1631 = DIRECTION('',(0.,1.,0.));
#1632 = ORIENTED_EDGE('',*,*,#830,.F.);
#1633 = PLANE('',#1634);
#1634 = AXIS2_PLACEMENT_3D('',#1635,#1636,#1637);
#1635 = CARTESIAN_POINT('',(0.25,21.15,21.));
#1636 = DIRECTION('',(1.,0.,0.));
#1637 = DIRECTION('',(0.,0.,1.));
#1638 = ADVANCED_FACE('',(#1639),#1650,.T.);
#1639 = FACE_BOUND('',#1640,.T.);
#1640 = EDGE_LOOP('',(#1641,#1647,#1648,#1649));
#1641 = ORIENTED_EDGE('',*,*,#1642,.F.);
#1642 = EDGE_CURVE('',#1085,#815,#1643,.T.);
#1643 = LINE('',#1644,#1645);
#1644 = CARTESIAN_POINT('',(-6.35,21.15,21.));
#1645 = VECTOR('',#1646,1.);
#1646 = DIRECTION('',(0.,1.,0.));
#1647 = ORIENTED_EDGE('',*,*,#1092,.T.);
#1648 = ORIENTED_EDGE('',*,*,#1627,.T.);
#1649 = ORIENTED_EDGE('',*,*,#822,.F.);
#1650 = PLANE('',#1651);
#1651 = AXIS2_PLACEMENT_3D('',#1652,#1653,#1654);
#1652 = CARTESIAN_POINT('',(-6.35,21.15,21.));
#1653 = DIRECTION('',(0.,0.,1.));
#1654 = DIRECTION('',(1.,0.,0.));
#1655 = ADVANCED_FACE('',(#1656),#1662,.T.);
#1656 = FACE_BOUND('',#1657,.T.);
#1657 = EDGE_LOOP('',(#1658,#1659,#1660,#1661));
#1658 = ORIENTED_EDGE('',*,*,#1603,.F.);
#1659 = ORIENTED_EDGE('',*,*,#1084,.T.);
#1660 = ORIENTED_EDGE('',*,*,#1642,.T.);
#1661 = ORIENTED_EDGE('',*,*,#814,.F.);
#1662 = PLANE('',#1663);
#1663 = AXIS2_PLACEMENT_3D('',#1664,#1665,#1666);
#1664 = CARTESIAN_POINT('',(-6.35,21.15,21.));
#1665 = DIRECTION('',(1.,0.,0.));
#1666 = DIRECTION('',(0.,0.,1.));
#1667 = ADVANCED_FACE('',(#1668),#1683,.F.);
#1668 = FACE_BOUND('',#1669,.F.);
#1669 = EDGE_LOOP('',(#1670,#1671,#1672,#1682));
#1670 = ORIENTED_EDGE('',*,*,#1310,.T.);
#1671 = ORIENTED_EDGE('',*,*,#1132,.T.);
#1672 = ORIENTED_EDGE('',*,*,#1673,.F.);
#1673 = EDGE_CURVE('',#942,#1133,#1674,.T.);
#1674 = B_SPLINE_CURVE_WITH_KNOTS('',6,(#1675,#1676,#1677,#1678,#1679,
    #1680,#1681),.UNSPECIFIED.,.F.,.F.,(7,7),(0.,1.),
  .PIECEWISE_BEZIER_KNOTS.);
#1675 = CARTESIAN_POINT('',(44.9,18.65,7.5));
#1676 = CARTESIAN_POINT('',(44.9,18.566666666667,6.583702142703));
#1677 = CARTESIAN_POINT('',(44.612203098929,18.483333333333,
    5.667482247532));
#1678 = CARTESIAN_POINT('',(44.036165523741,18.4,4.863834476259));
#1679 = CARTESIAN_POINT('',(43.232517752468,18.316666666667,
    4.287796901071));
#1680 = CARTESIAN_POINT('',(42.316297857297,18.233333333333,4.));
#1681 = CARTESIAN_POINT('',(41.4,18.15,4.));
#1682 = ORIENTED_EDGE('',*,*,#951,.F.);
#1683 = CYLINDRICAL_SURFACE('',#1684,3.5);
#1684 = AXIS2_PLACEMENT_3D('',#1685,#1686,#1687);
#1685 = CARTESIAN_POINT('',(41.4,-18.65,7.5));
#1686 = DIRECTION('',(0.,1.,0.));
#1687 = DIRECTION('',(1.,0.,0.));
#1688 = ADVANCED_FACE('',(#1689),#1705,.T.);
#1689 = FACE_BOUND('',#1690,.T.);
#1690 = EDGE_LOOP('',(#1691,#1692,#1693));
#1691 = ORIENTED_EDGE('',*,*,#1673,.F.);
#1692 = ORIENTED_EDGE('',*,*,#966,.T.);
#1693 = ORIENTED_EDGE('',*,*,#1694,.T.);
#1694 = EDGE_CURVE('',#967,#1133,#1695,.T.);
#1695 = B_SPLINE_CURVE_WITH_KNOTS('',8,(#1696,#1697,#1698,#1699,#1700,
    #1701,#1702,#1703,#1704),.UNSPECIFIED.,.F.,.F.,(9,9),(0.,1.),
  .PIECEWISE_BEZIER_KNOTS.);
#1696 = CARTESIAN_POINT('',(41.9,21.65,7.5));
#1697 = CARTESIAN_POINT('',(41.8375,21.65,6.812776607027));
#1698 = CARTESIAN_POINT('',(41.775,21.495787238636,6.125552997735));
#1699 = CARTESIAN_POINT('',(41.7125,21.18736323055,5.478703679827));
#1700 = CARTESIAN_POINT('',(41.649999999999,20.737405645229,
    4.91259435477));
#1701 = CARTESIAN_POINT('',(41.587500000001,20.171296320173,
    4.46263676945));
#1702 = CARTESIAN_POINT('',(41.525,19.524447002264,4.154212761364));
#1703 = CARTESIAN_POINT('',(41.4625,18.837223392973,4.));
#1704 = CARTESIAN_POINT('',(41.4,18.15,4.));
#1705 = B_SPLINE_SURFACE_WITH_KNOTS('',8,8,(
    (#1706,#1707,#1708,#1709,#1710,#1711,#1712,#1713,#1714)
    ,(#1715,#1716,#1717,#1718,#1719,#1720,#1721,#1722,#1723)
    ,(#1724,#1725,#1726,#1727,#1728,#1729,#1730,#1731,#1732)
    ,(#1733,#1734,#1735,#1736,#1737,#1738,#1739,#1740,#1741)
    ,(#1742,#1743,#1744,#1745,#1746,#1747,#1748,#1749,#1750)
    ,(#1751,#1752,#1753,#1754,#1755,#1756,#1757,#1758,#1759)
    ,(#1760,#1761,#1762,#1763,#1764,#1765,#1766,#1767,#1768)
    ,(#1769,#1770,#1771,#1772,#1773,#1774,#1775,#1776,#1777)
    ,(#1778,#1779,#1780,#1781,#1782,#1783,#1784,#1785,#1786
  )),.UNSPECIFIED.,.F.,.F.,.F.,(9,9),(9,9),(0.,1.),(0.,1.),
  .PIECEWISE_BEZIER_KNOTS.);
#1706 = CARTESIAN_POINT('',(44.9,18.65,7.5));
#1707 = CARTESIAN_POINT('',(44.9,18.5875,6.812776607027));
#1708 = CARTESIAN_POINT('',(44.745787238635,18.525,6.125552997735));
#1709 = CARTESIAN_POINT('',(44.43736323055,18.4625,5.478703679827));
#1710 = CARTESIAN_POINT('',(43.987405645229,18.4,4.91259435477));
#1711 = CARTESIAN_POINT('',(43.421296320173,18.3375,4.46263676945));
#1712 = CARTESIAN_POINT('',(42.774447002265,18.275,4.154212761364));
#1713 = CARTESIAN_POINT('',(42.087223392973,18.2125,4.));
#1714 = CARTESIAN_POINT('',(41.4,18.15,4.));
#1715 = CARTESIAN_POINT('',(44.9,19.23904860162,7.5));
#1716 = CARTESIAN_POINT('',(44.906135922934,19.157605026417,
    6.812776607027));
#1717 = CARTESIAN_POINT('',(44.754434208977,19.056884856045,
    6.101073421834));
#1718 = CARTESIAN_POINT('',(44.427463430931,18.936888279831,
    5.419937683772));
#1719 = CARTESIAN_POINT('',(43.934610140695,18.799200006464,
    4.842557347244));
#1720 = CARTESIAN_POINT('',(43.347689498478,18.646992765629,
    4.421138696692));
#1721 = CARTESIAN_POINT('',(42.71385625069,18.484693025688,
    4.140102160457));
#1722 = CARTESIAN_POINT('',(42.056007968851,18.317346499324,4.));
#1723 = CARTESIAN_POINT('',(41.4,18.15,4.));
#1724 = CARTESIAN_POINT('',(44.767817645486,19.828097482553,7.5));
#1725 = CARTESIAN_POINT('',(44.792079009034,19.756032733539,
    6.812776607027));
#1726 = CARTESIAN_POINT('',(44.556739178409,19.72012303491,
    6.083588010476));
#1727 = CARTESIAN_POINT('',(44.210683437855,19.560380054708,
    5.377961972304));
#1728 = CARTESIAN_POINT('',(43.708200491134,19.332988879865,
    4.792530913297));
#1729 = CARTESIAN_POINT('',(43.14078555864,19.062111158717,
    4.391497216151));
#1730 = CARTESIAN_POINT('',(42.558256899306,18.766295551284,
    4.130023159808));
#1731 = CARTESIAN_POINT('',(41.916405224363,18.509542868957,4.));
#1732 = CARTESIAN_POINT('',(41.4,18.15,4.));
#1733 = CARTESIAN_POINT('',(44.503454154392,20.382539633576,7.5));
#1734 = CARTESIAN_POINT('',(44.534935370294,20.346880582262,
    6.812776607027));
#1735 = CARTESIAN_POINT('',(44.340054653672,20.266849635213,
    6.073096763661));
#1736 = CARTESIAN_POINT('',(44.017824635797,20.045987269425,
    5.352776545423));
#1737 = CARTESIAN_POINT('',(43.542662373717,19.721931606449,
    4.762515052929));
#1738 = CARTESIAN_POINT('',(43.007557389068,19.345626093533,
    4.373712327826));
#1739 = CARTESIAN_POINT('',(42.463105819925,18.948787646917,
    4.123975759419));
#1740 = CARTESIAN_POINT('',(41.883249014237,18.57425525417,4.));
#1741 = CARTESIAN_POINT('',(41.4,18.15,4.));
#1742 = CARTESIAN_POINT('',(44.117776334955,20.867776334946,7.5));
#1743 = CARTESIAN_POINT('',(44.127299291986,20.877299291978,
    6.812776607027));
#1744 = CARTESIAN_POINT('',(43.990735262027,20.740735262024,
    6.06959968139));
#1745 = CARTESIAN_POINT('',(43.712794335005,20.462794335002,
    5.34438140313));
#1746 = CARTESIAN_POINT('',(43.300208675838,20.050208675836,
    4.752509766139));
#1747 = CARTESIAN_POINT('',(42.830277588003,19.580277588001,
    4.367784031718));
#1748 = CARTESIAN_POINT('',(42.347102090226,19.097102090225,
    4.12195995929));
#1749 = CARTESIAN_POINT('',(41.859011496717,18.609011496718,4.));
#1750 = CARTESIAN_POINT('',(41.4,18.15,4.));
#1751 = CARTESIAN_POINT('',(43.632539633564,21.253454154397,7.5));
#1752 = CARTESIAN_POINT('',(43.596880582251,21.284935370298,
    6.812776607027));
#1753 = CARTESIAN_POINT('',(43.516849635205,21.090054653676,
    6.073096763661));
#1754 = CARTESIAN_POINT('',(43.295987269419,20.767824635799,
    5.352776545423));
#1755 = CARTESIAN_POINT('',(42.971931606444,20.292662373719,
    4.762515052929));
#1756 = CARTESIAN_POINT('',(42.595626093529,19.75755738907,
    4.373712327826));
#1757 = CARTESIAN_POINT('',(42.198787646914,19.213105819926,
    4.123975759419));
#1758 = CARTESIAN_POINT('',(41.824255254169,18.633249014237,4.));
#1759 = CARTESIAN_POINT('',(41.4,18.15,4.));
#1760 = CARTESIAN_POINT('',(43.07809748256,21.517817645485,7.5));
#1761 = CARTESIAN_POINT('',(43.006032733546,21.542079009033,
    6.812776607027));
#1762 = CARTESIAN_POINT('',(42.970123034912,21.306739178409,
    6.083588010476));
#1763 = CARTESIAN_POINT('',(42.81038005471,20.960683437855,
    5.377961972304));
#1764 = CARTESIAN_POINT('',(42.582988879866,20.458200491134,
    4.792530913297));
#1765 = CARTESIAN_POINT('',(42.312111158719,19.89078555864,
    4.391497216151));
#1766 = CARTESIAN_POINT('',(42.016295551285,19.308256899306,
    4.130023159808));
#1767 = CARTESIAN_POINT('',(41.759542868957,18.666405224363,4.));
#1768 = CARTESIAN_POINT('',(41.4,18.15,4.));
#1769 = CARTESIAN_POINT('',(42.489048601616,21.65,7.5));
#1770 = CARTESIAN_POINT('',(42.407605026414,21.656135922933,
    6.812776607027));
#1771 = CARTESIAN_POINT('',(42.306884856041,21.504434208977,
    6.101073421834));
#1772 = CARTESIAN_POINT('',(42.186888279829,21.177463430931,
    5.419937683772));
#1773 = CARTESIAN_POINT('',(42.049200006461,20.684610140695,
    4.842557347244));
#1774 = CARTESIAN_POINT('',(41.896992765628,20.097689498479,
    4.421138696692));
#1775 = CARTESIAN_POINT('',(41.734693025687,19.46385625069,
    4.140102160457));
#1776 = CARTESIAN_POINT('',(41.567346499324,18.806007968851,4.));
#1777 = CARTESIAN_POINT('',(41.4,18.15,4.));
#1778 = CARTESIAN_POINT('',(41.9,21.65,7.5));
#1779 = CARTESIAN_POINT('',(41.8375,21.65,6.812776607027));
#1780 = CARTESIAN_POINT('',(41.775,21.495787238636,6.125552997735));
#1781 = CARTESIAN_POINT('',(41.7125,21.18736323055,5.478703679827));
#1782 = CARTESIAN_POINT('',(41.649999999999,20.737405645229,
    4.91259435477));
#1783 = CARTESIAN_POINT('',(41.587500000001,20.171296320173,
    4.46263676945));
#1784 = CARTESIAN_POINT('',(41.525,19.524447002264,4.154212761364));
#1785 = CARTESIAN_POINT('',(41.4625,18.837223392973,4.));
#1786 = CARTESIAN_POINT('',(41.4,18.15,4.));
#1787 = ADVANCED_FACE('',(#1788),#1794,.F.);
#1788 = FACE_BOUND('',#1789,.F.);
#1789 = EDGE_LOOP('',(#1790,#1791,#1792,#1793));
#1790 = ORIENTED_EDGE('',*,*,#1694,.T.);
#1791 = ORIENTED_EDGE('',*,*,#1140,.T.);
#1792 = ORIENTED_EDGE('',*,*,#1199,.F.);
#1793 = ORIENTED_EDGE('',*,*,#996,.F.);
#1794 = CYLINDRICAL_SURFACE('',#1795,3.5);
#1795 = AXIS2_PLACEMENT_3D('',#1796,#1797,#1798);
#1796 = CARTESIAN_POINT('',(41.9,18.15,7.5));
#1797 = DIRECTION('',(-1.,0.,0.));
#1798 = DIRECTION('',(0.,1.,0.));
#1799 = ADVANCED_FACE('',(#1800),#1819,.F.);
#1800 = FACE_BOUND('',#1801,.F.);
#1801 = EDGE_LOOP('',(#1802,#1803,#1811,#1818));
#1802 = ORIENTED_EDGE('',*,*,#1149,.F.);
#1803 = ORIENTED_EDGE('',*,*,#1804,.F.);
#1804 = EDGE_CURVE('',#1805,#1150,#1807,.T.);
#1805 = VERTEX_POINT('',#1806);
#1806 = CARTESIAN_POINT('',(-31.55,-14.85,2.6));
#1807 = LINE('',#1808,#1809);
#1808 = CARTESIAN_POINT('',(-31.55,-14.85,2.));
#1809 = VECTOR('',#1810,1.);
#1810 = DIRECTION('',(0.,0.,1.));
#1811 = ORIENTED_EDGE('',*,*,#1812,.T.);
#1812 = EDGE_CURVE('',#1805,#1805,#1813,.T.);
#1813 = CIRCLE('',#1814,1.5);
#1814 = AXIS2_PLACEMENT_3D('',#1815,#1816,#1817);
#1815 = CARTESIAN_POINT('',(-33.05,-14.85,2.6));
#1816 = DIRECTION('',(0.,0.,1.));
#1817 = DIRECTION('',(1.,0.,0.));
#1818 = ORIENTED_EDGE('',*,*,#1804,.T.);
#1819 = CYLINDRICAL_SURFACE('',#1820,1.5);
#1820 = AXIS2_PLACEMENT_3D('',#1821,#1822,#1823);
#1821 = CARTESIAN_POINT('',(-33.05,-14.85,2.));
#1822 = DIRECTION('',(0.,0.,1.));
#1823 = DIRECTION('',(1.,0.,0.));
#1824 = ADVANCED_FACE('',(#1825),#1844,.F.);
#1825 = FACE_BOUND('',#1826,.F.);
#1826 = EDGE_LOOP('',(#1827,#1828,#1836,#1843));
#1827 = ORIENTED_EDGE('',*,*,#1160,.F.);
#1828 = ORIENTED_EDGE('',*,*,#1829,.F.);
#1829 = EDGE_CURVE('',#1830,#1161,#1832,.T.);
#1830 = VERTEX_POINT('',#1831);
#1831 = CARTESIAN_POINT('',(40.05,-14.85,2.6));
#1832 = LINE('',#1833,#1834);
#1833 = CARTESIAN_POINT('',(40.05,-14.85,2.));
#1834 = VECTOR('',#1835,1.);
#1835 = DIRECTION('',(0.,0.,1.));
#1836 = ORIENTED_EDGE('',*,*,#1837,.T.);
#1837 = EDGE_CURVE('',#1830,#1830,#1838,.T.);
#1838 = CIRCLE('',#1839,1.5);
#1839 = AXIS2_PLACEMENT_3D('',#1840,#1841,#1842);
#1840 = CARTESIAN_POINT('',(38.55,-14.85,2.6));
#1841 = DIRECTION('',(0.,0.,1.));
#1842 = DIRECTION('',(1.,0.,0.));
#1843 = ORIENTED_EDGE('',*,*,#1829,.T.);
#1844 = CYLINDRICAL_SURFACE('',#1845,1.5);
#1845 = AXIS2_PLACEMENT_3D('',#1846,#1847,#1848);
#1846 = CARTESIAN_POINT('',(38.55,-14.85,2.));
#1847 = DIRECTION('',(0.,0.,1.));
#1848 = DIRECTION('',(1.,0.,0.));
#1849 = ADVANCED_FACE('',(#1850),#1869,.F.);
#1850 = FACE_BOUND('',#1851,.F.);
#1851 = EDGE_LOOP('',(#1852,#1853,#1861,#1868));
#1852 = ORIENTED_EDGE('',*,*,#1171,.F.);
#1853 = ORIENTED_EDGE('',*,*,#1854,.F.);
#1854 = EDGE_CURVE('',#1855,#1172,#1857,.T.);
#1855 = VERTEX_POINT('',#1856);
#1856 = CARTESIAN_POINT('',(-31.55,14.85,2.6));
#1857 = LINE('',#1858,#1859);
#1858 = CARTESIAN_POINT('',(-31.55,14.85,2.));
#1859 = VECTOR('',#1860,1.);
#1860 = DIRECTION('',(0.,0.,1.));
#1861 = ORIENTED_EDGE('',*,*,#1862,.T.);
#1862 = EDGE_CURVE('',#1855,#1855,#1863,.T.);
#1863 = CIRCLE('',#1864,1.5);
#1864 = AXIS2_PLACEMENT_3D('',#1865,#1866,#1867);
#1865 = CARTESIAN_POINT('',(-33.05,14.85,2.6));
#1866 = DIRECTION('',(0.,0.,1.));
#1867 = DIRECTION('',(1.,0.,0.));
#1868 = ORIENTED_EDGE('',*,*,#1854,.T.);
#1869 = CYLINDRICAL_SURFACE('',#1870,1.5);
#1870 = AXIS2_PLACEMENT_3D('',#1871,#1872,#1873);
#1871 = CARTESIAN_POINT('',(-33.05,14.85,2.));
#1872 = DIRECTION('',(0.,0.,1.));
#1873 = DIRECTION('',(1.,0.,0.));
#1874 = ADVANCED_FACE('',(#1875),#1894,.F.);
#1875 = FACE_BOUND('',#1876,.F.);
#1876 = EDGE_LOOP('',(#1877,#1878,#1886,#1893));
#1877 = ORIENTED_EDGE('',*,*,#1182,.F.);
#1878 = ORIENTED_EDGE('',*,*,#1879,.F.);
#1879 = EDGE_CURVE('',#1880,#1183,#1882,.T.);
#1880 = VERTEX_POINT('',#1881);
#1881 = CARTESIAN_POINT('',(40.05,14.85,2.6));
#1882 = LINE('',#1883,#1884);
#1883 = CARTESIAN_POINT('',(40.05,14.85,2.));
#1884 = VECTOR('',#1885,1.);
#1885 = DIRECTION('',(0.,0.,1.));
#1886 = ORIENTED_EDGE('',*,*,#1887,.T.);
#1887 = EDGE_CURVE('',#1880,#1880,#1888,.T.);
#1888 = CIRCLE('',#1889,1.5);
#1889 = AXIS2_PLACEMENT_3D('',#1890,#1891,#1892);
#1890 = CARTESIAN_POINT('',(38.55,14.85,2.6));
#1891 = DIRECTION('',(0.,0.,1.));
#1892 = DIRECTION('',(1.,0.,0.));
#1893 = ORIENTED_EDGE('',*,*,#1879,.T.);
#1894 = CYLINDRICAL_SURFACE('',#1895,1.5);
#1895 = AXIS2_PLACEMENT_3D('',#1896,#1897,#1898);
#1896 = CARTESIAN_POINT('',(38.55,14.85,2.));
#1897 = DIRECTION('',(0.,0.,1.));
#1898 = DIRECTION('',(1.,0.,0.));
#1899 = ADVANCED_FACE('',(#1900),#1919,.F.);
#1900 = FACE_BOUND('',#1901,.F.);
#1901 = EDGE_LOOP('',(#1902,#1910,#1917,#1918));
#1902 = ORIENTED_EDGE('',*,*,#1903,.T.);
#1903 = EDGE_CURVE('',#1418,#1904,#1906,.T.);
#1904 = VERTEX_POINT('',#1905);
#1905 = CARTESIAN_POINT('',(-30.425,-14.85,2.6));
#1906 = LINE('',#1907,#1908);
#1907 = CARTESIAN_POINT('',(-30.425,-14.85,-5.E-02));
#1908 = VECTOR('',#1909,1.);
#1909 = DIRECTION('',(0.,0.,1.));
#1910 = ORIENTED_EDGE('',*,*,#1911,.F.);
#1911 = EDGE_CURVE('',#1904,#1904,#1912,.T.);
#1912 = CIRCLE('',#1913,2.625);
#1913 = AXIS2_PLACEMENT_3D('',#1914,#1915,#1916);
#1914 = CARTESIAN_POINT('',(-33.05,-14.85,2.6));
#1915 = DIRECTION('',(0.,0.,1.));
#1916 = DIRECTION('',(1.,0.,0.));
#1917 = ORIENTED_EDGE('',*,*,#1903,.F.);
#1918 = ORIENTED_EDGE('',*,*,#1417,.T.);
#1919 = CYLINDRICAL_SURFACE('',#1920,2.625);
#1920 = AXIS2_PLACEMENT_3D('',#1921,#1922,#1923);
#1921 = CARTESIAN_POINT('',(-33.05,-14.85,-5.E-02));
#1922 = DIRECTION('',(0.,0.,1.));
#1923 = DIRECTION('',(1.,0.,0.));
#1924 = ADVANCED_FACE('',(#1925),#1944,.F.);
#1925 = FACE_BOUND('',#1926,.F.);
#1926 = EDGE_LOOP('',(#1927,#1935,#1942,#1943));
#1927 = ORIENTED_EDGE('',*,*,#1928,.T.);
#1928 = EDGE_CURVE('',#1429,#1929,#1931,.T.);
#1929 = VERTEX_POINT('',#1930);
#1930 = CARTESIAN_POINT('',(41.175,-14.85,2.6));
#1931 = LINE('',#1932,#1933);
#1932 = CARTESIAN_POINT('',(41.175,-14.85,-5.E-02));
#1933 = VECTOR('',#1934,1.);
#1934 = DIRECTION('',(0.,0.,1.));
#1935 = ORIENTED_EDGE('',*,*,#1936,.F.);
#1936 = EDGE_CURVE('',#1929,#1929,#1937,.T.);
#1937 = CIRCLE('',#1938,2.625);
#1938 = AXIS2_PLACEMENT_3D('',#1939,#1940,#1941);
#1939 = CARTESIAN_POINT('',(38.55,-14.85,2.6));
#1940 = DIRECTION('',(0.,0.,1.));
#1941 = DIRECTION('',(1.,0.,0.));
#1942 = ORIENTED_EDGE('',*,*,#1928,.F.);
#1943 = ORIENTED_EDGE('',*,*,#1428,.T.);
#1944 = CYLINDRICAL_SURFACE('',#1945,2.625);
#1945 = AXIS2_PLACEMENT_3D('',#1946,#1947,#1948);
#1946 = CARTESIAN_POINT('',(38.55,-14.85,-5.E-02));
#1947 = DIRECTION('',(0.,0.,1.));
#1948 = DIRECTION('',(1.,0.,0.));
#1949 = ADVANCED_FACE('',(#1950),#1969,.F.);
#1950 = FACE_BOUND('',#1951,.F.);
#1951 = EDGE_LOOP('',(#1952,#1960,#1967,#1968));
#1952 = ORIENTED_EDGE('',*,*,#1953,.T.);
#1953 = EDGE_CURVE('',#1440,#1954,#1956,.T.);
#1954 = VERTEX_POINT('',#1955);
#1955 = CARTESIAN_POINT('',(-30.425,14.85,2.6));
#1956 = LINE('',#1957,#1958);
#1957 = CARTESIAN_POINT('',(-30.425,14.85,-5.E-02));
#1958 = VECTOR('',#1959,1.);
#1959 = DIRECTION('',(0.,0.,1.));
#1960 = ORIENTED_EDGE('',*,*,#1961,.F.);
#1961 = EDGE_CURVE('',#1954,#1954,#1962,.T.);
#1962 = CIRCLE('',#1963,2.625);
#1963 = AXIS2_PLACEMENT_3D('',#1964,#1965,#1966);
#1964 = CARTESIAN_POINT('',(-33.05,14.85,2.6));
#1965 = DIRECTION('',(0.,0.,1.));
#1966 = DIRECTION('',(1.,0.,0.));
#1967 = ORIENTED_EDGE('',*,*,#1953,.F.);
#1968 = ORIENTED_EDGE('',*,*,#1439,.T.);
#1969 = CYLINDRICAL_SURFACE('',#1970,2.625);
#1970 = AXIS2_PLACEMENT_3D('',#1971,#1972,#1973);
#1971 = CARTESIAN_POINT('',(-33.05,14.85,-5.E-02));
#1972 = DIRECTION('',(0.,0.,1.));
#1973 = DIRECTION('',(1.,0.,0.));
#1974 = ADVANCED_FACE('',(#1975),#1994,.F.);
#1975 = FACE_BOUND('',#1976,.F.);
#1976 = EDGE_LOOP('',(#1977,#1985,#1992,#1993));
#1977 = ORIENTED_EDGE('',*,*,#1978,.T.);
#1978 = EDGE_CURVE('',#1451,#1979,#1981,.T.);
#1979 = VERTEX_POINT('',#1980);
#1980 = CARTESIAN_POINT('',(41.175,14.85,2.6));
#1981 = LINE('',#1982,#1983);
#1982 = CARTESIAN_POINT('',(41.175,14.85,-5.E-02));
#1983 = VECTOR('',#1984,1.);
#1984 = DIRECTION('',(0.,0.,1.));
#1985 = ORIENTED_EDGE('',*,*,#1986,.F.);
#1986 = EDGE_CURVE('',#1979,#1979,#1987,.T.);
#1987 = CIRCLE('',#1988,2.625);
#1988 = AXIS2_PLACEMENT_3D('',#1989,#1990,#1991);
#1989 = CARTESIAN_POINT('',(38.55,14.85,2.6));
#1990 = DIRECTION('',(0.,0.,1.));
#1991 = DIRECTION('',(1.,0.,0.));
#1992 = ORIENTED_EDGE('',*,*,#1978,.F.);
#1993 = ORIENTED_EDGE('',*,*,#1450,.T.);
#1994 = CYLINDRICAL_SURFACE('',#1995,2.625);
#1995 = AXIS2_PLACEMENT_3D('',#1996,#1997,#1998);
#1996 = CARTESIAN_POINT('',(38.55,14.85,-5.E-02));
#1997 = DIRECTION('',(0.,0.,1.));
#1998 = DIRECTION('',(1.,0.,0.));
#1999 = ADVANCED_FACE('',(#2000,#2003),#2006,.F.);
#2000 = FACE_BOUND('',#2001,.F.);
#2001 = EDGE_LOOP('',(#2002));
#2002 = ORIENTED_EDGE('',*,*,#1911,.T.);
#2003 = FACE_BOUND('',#2004,.F.);
#2004 = EDGE_LOOP('',(#2005));
#2005 = ORIENTED_EDGE('',*,*,#1812,.F.);
#2006 = PLANE('',#2007);
#2007 = AXIS2_PLACEMENT_3D('',#2008,#2009,#2010);
#2008 = CARTESIAN_POINT('',(-33.05,-14.85,2.6));
#2009 = DIRECTION('',(0.,0.,1.));
#2010 = DIRECTION('',(1.,0.,0.));
#2011 = ADVANCED_FACE('',(#2012,#2015),#2018,.F.);
#2012 = FACE_BOUND('',#2013,.F.);
#2013 = EDGE_LOOP('',(#2014));
#2014 = ORIENTED_EDGE('',*,*,#1936,.T.);
#2015 = FACE_BOUND('',#2016,.F.);
#2016 = EDGE_LOOP('',(#2017));
#2017 = ORIENTED_EDGE('',*,*,#1837,.F.);
#2018 = PLANE('',#2019);
#2019 = AXIS2_PLACEMENT_3D('',#2020,#2021,#2022);
#2020 = CARTESIAN_POINT('',(38.55,-14.85,2.6));
#2021 = DIRECTION('',(0.,0.,1.));
#2022 = DIRECTION('',(1.,0.,0.));
#2023 = ADVANCED_FACE('',(#2024,#2027),#2030,.F.);
#2024 = FACE_BOUND('',#2025,.F.);
#2025 = EDGE_LOOP('',(#2026));
#2026 = ORIENTED_EDGE('',*,*,#1961,.T.);
#2027 = FACE_BOUND('',#2028,.F.);
#2028 = EDGE_LOOP('',(#2029));
#2029 = ORIENTED_EDGE('',*,*,#1862,.F.);
#2030 = PLANE('',#2031);
#2031 = AXIS2_PLACEMENT_3D('',#2032,#2033,#2034);
#2032 = CARTESIAN_POINT('',(-33.05,14.85,2.6));
#2033 = DIRECTION('',(0.,0.,1.));
#2034 = DIRECTION('',(1.,0.,0.));
#2035 = ADVANCED_FACE('',(#2036,#2039),#2042,.F.);
#2036 = FACE_BOUND('',#2037,.F.);
#2037 = EDGE_LOOP('',(#2038));
#2038 = ORIENTED_EDGE('',*,*,#1986,.T.);
#2039 = FACE_BOUND('',#2040,.F.);
#2040 = EDGE_LOOP('',(#2041));
#2041 = ORIENTED_EDGE('',*,*,#1887,.F.);
#2042 = PLANE('',#2043);
#2043 = AXIS2_PLACEMENT_3D('',#2044,#2045,#2046);
#2044 = CARTESIAN_POINT('',(38.55,14.85,2.6));
#2045 = DIRECTION('',(0.,0.,1.));
#2046 = DIRECTION('',(1.,0.,0.));
#2047 = ( GEOMETRIC_REPRESENTATION_CONTEXT(3) 
GLOBAL_UNCERTAINTY_ASSIGNED_CONTEXT((#2051)) 
GLOBAL_UNIT_ASSIGNED_CONTEXT((#2048,#2049,#2050)) REPRESENTATION_CONTEXT
('Context #1','3D Context with UNIT and UNCERTAINTY') );
#2048 = ( LENGTH_UNIT() NAMED_UNIT(*) SI_UNIT(.MILLI.,.METRE.) );
#2049 = ( NAMED_UNIT(*) PLANE_ANGLE_UNIT() SI_UNIT($,.RADIAN.) );
#2050 = ( NAMED_UNIT(*) SI_UNIT($,.STERADIAN.) SOLID_ANGLE_UNIT() );
#2051 = UNCERTAINTY_MEASURE_WITH_UNIT(LENGTH_MEASURE(2.E-05),#2048,
  'distance_accuracy_value','confusion accuracy');
#2052 = PRODUCT_RELATED_PRODUCT_CATEGORY('part',$,(#7));
ENDSEC;
END-ISO-10303-21;
